<mxfile host="Electron" agent="Mozilla/5.0 (Windows NT 10.0; Win64; x64) AppleWebKit/537.36 (KHTML, like Gecko) draw.io/22.0.3 Chrome/114.0.5735.289 Electron/25.8.4 Safari/537.36" modified="2025-05-27T15:20:01.082Z" version="22.0.3" etag="LoiP4BE4btjg8WfFLtIx" type="device">
  <diagram name="Page-1" id="9f46799a-70d6-7492-0946-bef42562c5a5">
    <mxGraphModel dx="6196" dy="4970" grid="1" gridSize="10" guides="1" tooltips="1" connect="1" arrows="1" fold="1" page="1" pageScale="1" pageWidth="1100" pageHeight="850" background="none" math="0" shadow="0">
      <root>
        <mxCell id="0" />
        <mxCell id="1" parent="0" />
        <mxCell id="8m_SzLdECYq5h24U5q7m-221" value="" style="whiteSpace=wrap;html=1;fillColor=#F19C99;" vertex="1" parent="1">
          <mxGeometry x="-500" y="-1760" width="2500" height="450" as="geometry" />
        </mxCell>
        <mxCell id="8m_SzLdECYq5h24U5q7m-222" value="" style="whiteSpace=wrap;html=1;fillColor=#FFF2C7;" vertex="1" parent="1">
          <mxGeometry x="680" y="-1560" width="1310" height="240" as="geometry" />
        </mxCell>
        <mxCell id="a5qGw5WAIlKBjk8DeZCX-182" value="" style="whiteSpace=wrap;html=1;fillColor=#FFF2C7;" parent="1" vertex="1">
          <mxGeometry x="-255" y="-1730" width="890" height="400" as="geometry" />
        </mxCell>
        <mxCell id="a5qGw5WAIlKBjk8DeZCX-183" value="View" style="shape=umlFrame;whiteSpace=wrap;html=1;pointerEvents=0;strokeColor=#FFF0CF;fillColor=#FFF2C7;shadow=1;width=80;height=30;" parent="1" vertex="1">
          <mxGeometry x="-260" y="-1730" width="890" height="400" as="geometry" />
        </mxCell>
        <mxCell id="a5qGw5WAIlKBjk8DeZCX-175" value="" style="whiteSpace=wrap;html=1;fillColor=#FFF2C7;" parent="1" vertex="1">
          <mxGeometry x="-280" y="930" width="1485" height="1070" as="geometry" />
        </mxCell>
        <mxCell id="a5qGw5WAIlKBjk8DeZCX-176" value="Model" style="shape=umlFrame;whiteSpace=wrap;html=1;pointerEvents=0;strokeColor=#FFF0CF;fillColor=#FFF2C7;shadow=1;" parent="1" vertex="1">
          <mxGeometry x="-280" y="930" width="1480" height="1070" as="geometry" />
        </mxCell>
        <mxCell id="a5qGw5WAIlKBjk8DeZCX-173" value="" style="whiteSpace=wrap;html=1;fillColor=#FFF2C7;" parent="1" vertex="1">
          <mxGeometry x="-670" y="-1275" width="2640" height="1585" as="geometry" />
        </mxCell>
        <mxCell id="78961159f06e98e8-17" value="&lt;i style=&quot;font-weight: normal;&quot;&gt;&amp;lt;&amp;lt;Interface&amp;gt;&amp;gt;&lt;br&gt;&lt;/i&gt;IBackUpType" style="swimlane;html=1;fontStyle=1;align=center;verticalAlign=top;childLayout=stackLayout;horizontal=1;startSize=47;horizontalStack=0;resizeParent=1;resizeLast=0;collapsible=1;marginBottom=0;swimlaneFillColor=#ffffff;rounded=0;shadow=0;comic=0;labelBackgroundColor=none;strokeWidth=1;fillColor=none;fontFamily=Verdana;fontSize=12" parent="1" vertex="1">
          <mxGeometry x="310" y="1146" width="160" height="90" as="geometry" />
        </mxCell>
        <mxCell id="78961159f06e98e8-19" value="" style="line;html=1;strokeWidth=1;fillColor=none;align=left;verticalAlign=middle;spacingTop=-1;spacingLeft=3;spacingRight=3;rotatable=0;labelPosition=right;points=[];portConstraint=eastwest;" parent="78961159f06e98e8-17" vertex="1">
          <mxGeometry y="47" width="160" height="8" as="geometry" />
        </mxCell>
        <mxCell id="78961159f06e98e8-20" value="+ execute(): bool" style="text;html=1;strokeColor=none;fillColor=none;align=left;verticalAlign=top;spacingLeft=4;spacingRight=4;whiteSpace=wrap;overflow=hidden;rotatable=0;points=[[0,0.5],[1,0.5]];portConstraint=eastwest;" parent="78961159f06e98e8-17" vertex="1">
          <mxGeometry y="55" width="160" height="25" as="geometry" />
        </mxCell>
        <mxCell id="78961159f06e98e8-30" value="BackUpJob" style="swimlane;html=1;fontStyle=1;align=center;verticalAlign=top;childLayout=stackLayout;horizontal=1;startSize=26;horizontalStack=0;resizeParent=1;resizeLast=0;collapsible=1;marginBottom=0;swimlaneFillColor=#ffffff;rounded=0;shadow=0;comic=0;labelBackgroundColor=none;strokeWidth=1;fillColor=none;fontFamily=Verdana;fontSize=12" parent="1" vertex="1">
          <mxGeometry x="655" y="1270" width="200" height="268" as="geometry" />
        </mxCell>
        <mxCell id="78961159f06e98e8-31" value="- backuptype : IBackUpType" style="text;html=1;strokeColor=none;fillColor=none;align=left;verticalAlign=top;spacingLeft=4;spacingRight=4;whiteSpace=wrap;overflow=hidden;rotatable=0;points=[[0,0.5],[1,0.5]];portConstraint=eastwest;" parent="78961159f06e98e8-30" vertex="1">
          <mxGeometry y="26" width="200" height="26" as="geometry" />
        </mxCell>
        <mxCell id="78961159f06e98e8-32" value="- name : string" style="text;html=1;strokeColor=none;fillColor=none;align=left;verticalAlign=top;spacingLeft=4;spacingRight=4;whiteSpace=wrap;overflow=hidden;rotatable=0;points=[[0,0.5],[1,0.5]];portConstraint=eastwest;" parent="78961159f06e98e8-30" vertex="1">
          <mxGeometry y="52" width="200" height="26" as="geometry" />
        </mxCell>
        <mxCell id="78961159f06e98e8-33" value="- source : string" style="text;html=1;strokeColor=none;fillColor=none;align=left;verticalAlign=top;spacingLeft=4;spacingRight=4;whiteSpace=wrap;overflow=hidden;rotatable=0;points=[[0,0.5],[1,0.5]];portConstraint=eastwest;" parent="78961159f06e98e8-30" vertex="1">
          <mxGeometry y="78" width="200" height="26" as="geometry" />
        </mxCell>
        <mxCell id="78961159f06e98e8-34" value="- target : string" style="text;html=1;strokeColor=none;fillColor=none;align=left;verticalAlign=top;spacingLeft=4;spacingRight=4;whiteSpace=wrap;overflow=hidden;rotatable=0;points=[[0,0.5],[1,0.5]];portConstraint=eastwest;" parent="78961159f06e98e8-30" vertex="1">
          <mxGeometry y="104" width="200" height="26" as="geometry" />
        </mxCell>
        <mxCell id="78961159f06e98e8-36" value="- type : string" style="text;html=1;strokeColor=none;fillColor=none;align=left;verticalAlign=top;spacingLeft=4;spacingRight=4;whiteSpace=wrap;overflow=hidden;rotatable=0;points=[[0,0.5],[1,0.5]];portConstraint=eastwest;" parent="78961159f06e98e8-30" vertex="1">
          <mxGeometry y="130" width="200" height="26" as="geometry" />
        </mxCell>
        <mxCell id="78961159f06e98e8-38" value="" style="line;html=1;strokeWidth=1;fillColor=none;align=left;verticalAlign=middle;spacingTop=-1;spacingLeft=3;spacingRight=3;rotatable=0;labelPosition=right;points=[];portConstraint=eastwest;" parent="78961159f06e98e8-30" vertex="1">
          <mxGeometry y="156" width="200" height="8" as="geometry" />
        </mxCell>
        <mxCell id="78961159f06e98e8-39" value="+ run() : bool" style="text;html=1;strokeColor=none;fillColor=none;align=left;verticalAlign=top;spacingLeft=4;spacingRight=4;whiteSpace=wrap;overflow=hidden;rotatable=0;points=[[0,0.5],[1,0.5]];portConstraint=eastwest;" parent="78961159f06e98e8-30" vertex="1">
          <mxGeometry y="164" width="200" height="26" as="geometry" />
        </mxCell>
        <mxCell id="a5qGw5WAIlKBjk8DeZCX-91" value="+ createJob() : bool" style="text;html=1;strokeColor=none;fillColor=none;align=left;verticalAlign=top;spacingLeft=4;spacingRight=4;whiteSpace=wrap;overflow=hidden;rotatable=0;points=[[0,0.5],[1,0.5]];portConstraint=eastwest;" parent="78961159f06e98e8-30" vertex="1">
          <mxGeometry y="190" width="200" height="26" as="geometry" />
        </mxCell>
        <mxCell id="a5qGw5WAIlKBjk8DeZCX-22" value="+ alterJob() : bool" style="text;html=1;strokeColor=none;fillColor=none;align=left;verticalAlign=top;spacingLeft=4;spacingRight=4;whiteSpace=wrap;overflow=hidden;rotatable=0;points=[[0,0.5],[1,0.5]];portConstraint=eastwest;" parent="78961159f06e98e8-30" vertex="1">
          <mxGeometry y="216" width="200" height="26" as="geometry" />
        </mxCell>
        <mxCell id="a5qGw5WAIlKBjk8DeZCX-23" value="+ deleteJob() : bool" style="text;html=1;strokeColor=none;fillColor=none;align=left;verticalAlign=top;spacingLeft=4;spacingRight=4;whiteSpace=wrap;overflow=hidden;rotatable=0;points=[[0,0.5],[1,0.5]];portConstraint=eastwest;" parent="78961159f06e98e8-30" vertex="1">
          <mxGeometry y="242" width="200" height="26" as="geometry" />
        </mxCell>
        <mxCell id="78961159f06e98e8-43" value="DifferentialType" style="swimlane;html=1;fontStyle=1;align=center;verticalAlign=top;childLayout=stackLayout;horizontal=1;startSize=26;horizontalStack=0;resizeParent=1;resizeLast=0;collapsible=1;marginBottom=0;swimlaneFillColor=#ffffff;rounded=0;shadow=0;comic=0;labelBackgroundColor=none;strokeWidth=1;fillColor=none;fontFamily=Verdana;fontSize=12" parent="1" vertex="1">
          <mxGeometry x="210" y="1000" width="160" height="80" as="geometry" />
        </mxCell>
        <mxCell id="78961159f06e98e8-51" value="" style="line;html=1;strokeWidth=1;fillColor=none;align=left;verticalAlign=middle;spacingTop=-1;spacingLeft=3;spacingRight=3;rotatable=0;labelPosition=right;points=[];portConstraint=eastwest;" parent="78961159f06e98e8-43" vertex="1">
          <mxGeometry y="26" width="160" height="8" as="geometry" />
        </mxCell>
        <mxCell id="78961159f06e98e8-52" value="+ execute(): bool" style="text;html=1;strokeColor=none;fillColor=none;align=left;verticalAlign=top;spacingLeft=4;spacingRight=4;whiteSpace=wrap;overflow=hidden;rotatable=0;points=[[0,0.5],[1,0.5]];portConstraint=eastwest;" parent="78961159f06e98e8-43" vertex="1">
          <mxGeometry y="34" width="160" height="26" as="geometry" />
        </mxCell>
        <mxCell id="78961159f06e98e8-69" value="&lt;i style=&quot;font-weight: normal;&quot;&gt;&amp;lt;&amp;lt;Singleton&amp;gt;&amp;gt;&lt;br&gt;&lt;/i&gt;DailyLog" style="swimlane;html=1;fontStyle=1;align=center;verticalAlign=top;childLayout=stackLayout;horizontal=1;startSize=48;horizontalStack=0;resizeParent=1;resizeLast=0;collapsible=1;marginBottom=0;swimlaneFillColor=#ffffff;rounded=0;shadow=0;comic=0;labelBackgroundColor=none;strokeWidth=1;fillColor=none;fontFamily=Verdana;fontSize=12" parent="1" vertex="1">
          <mxGeometry x="780" y="1610" width="160" height="290" as="geometry" />
        </mxCell>
        <mxCell id="78961159f06e98e8-70" value="+ filelist : list &amp;lt;IFile&amp;gt;" style="text;html=1;strokeColor=none;fillColor=none;align=left;verticalAlign=top;spacingLeft=4;spacingRight=4;whiteSpace=wrap;overflow=hidden;rotatable=0;points=[[0,0.5],[1,0.5]];portConstraint=eastwest;" parent="78961159f06e98e8-69" vertex="1">
          <mxGeometry y="48" width="160" height="26" as="geometry" />
        </mxCell>
        <mxCell id="78961159f06e98e8-71" value="+ logpath : string" style="text;html=1;strokeColor=none;fillColor=none;align=left;verticalAlign=top;spacingLeft=4;spacingRight=4;whiteSpace=wrap;overflow=hidden;rotatable=0;points=[[0,0.5],[1,0.5]];portConstraint=eastwest;" parent="78961159f06e98e8-69" vertex="1">
          <mxGeometry y="74" width="160" height="26" as="geometry" />
        </mxCell>
        <mxCell id="78961159f06e98e8-72" value="+ field: type" style="text;html=1;strokeColor=none;fillColor=none;align=left;verticalAlign=top;spacingLeft=4;spacingRight=4;whiteSpace=wrap;overflow=hidden;rotatable=0;points=[[0,0.5],[1,0.5]];portConstraint=eastwest;" parent="78961159f06e98e8-69" vertex="1">
          <mxGeometry y="100" width="160" height="26" as="geometry" />
        </mxCell>
        <mxCell id="78961159f06e98e8-74" value="+ field: type" style="text;html=1;strokeColor=none;fillColor=none;align=left;verticalAlign=top;spacingLeft=4;spacingRight=4;whiteSpace=wrap;overflow=hidden;rotatable=0;points=[[0,0.5],[1,0.5]];portConstraint=eastwest;" parent="78961159f06e98e8-69" vertex="1">
          <mxGeometry y="126" width="160" height="26" as="geometry" />
        </mxCell>
        <mxCell id="78961159f06e98e8-75" value="+ field: type" style="text;html=1;strokeColor=none;fillColor=none;align=left;verticalAlign=top;spacingLeft=4;spacingRight=4;whiteSpace=wrap;overflow=hidden;rotatable=0;points=[[0,0.5],[1,0.5]];portConstraint=eastwest;" parent="78961159f06e98e8-69" vertex="1">
          <mxGeometry y="152" width="160" height="26" as="geometry" />
        </mxCell>
        <mxCell id="78961159f06e98e8-76" value="+ field: type" style="text;html=1;strokeColor=none;fillColor=none;align=left;verticalAlign=top;spacingLeft=4;spacingRight=4;whiteSpace=wrap;overflow=hidden;rotatable=0;points=[[0,0.5],[1,0.5]];portConstraint=eastwest;" parent="78961159f06e98e8-69" vertex="1">
          <mxGeometry y="178" width="160" height="26" as="geometry" />
        </mxCell>
        <mxCell id="78961159f06e98e8-77" value="" style="line;html=1;strokeWidth=1;fillColor=none;align=left;verticalAlign=middle;spacingTop=-1;spacingLeft=3;spacingRight=3;rotatable=0;labelPosition=right;points=[];portConstraint=eastwest;" parent="78961159f06e98e8-69" vertex="1">
          <mxGeometry y="204" width="160" height="8" as="geometry" />
        </mxCell>
        <mxCell id="78961159f06e98e8-78" value="+ getInstance(): DailyLog" style="text;html=1;strokeColor=none;fillColor=none;align=left;verticalAlign=top;spacingLeft=4;spacingRight=4;whiteSpace=wrap;overflow=hidden;rotatable=0;points=[[0,0.5],[1,0.5]];portConstraint=eastwest;" parent="78961159f06e98e8-69" vertex="1">
          <mxGeometry y="212" width="160" height="26" as="geometry" />
        </mxCell>
        <mxCell id="78961159f06e98e8-80" value="+ CreateDailyLog(): void" style="text;html=1;strokeColor=none;fillColor=none;align=left;verticalAlign=top;spacingLeft=4;spacingRight=4;whiteSpace=wrap;overflow=hidden;rotatable=0;points=[[0,0.5],[1,0.5]];portConstraint=eastwest;" parent="78961159f06e98e8-69" vertex="1">
          <mxGeometry y="238" width="160" height="26" as="geometry" />
        </mxCell>
        <mxCell id="a5qGw5WAIlKBjk8DeZCX-3" value="+ AddFileLog(IFile): void" style="text;html=1;strokeColor=none;fillColor=none;align=left;verticalAlign=top;spacingLeft=4;spacingRight=4;whiteSpace=wrap;overflow=hidden;rotatable=0;points=[[0,0.5],[1,0.5]];portConstraint=eastwest;" parent="78961159f06e98e8-69" vertex="1">
          <mxGeometry y="264" width="160" height="26" as="geometry" />
        </mxCell>
        <mxCell id="78961159f06e98e8-121" style="edgeStyle=elbowEdgeStyle;html=1;labelBackgroundColor=none;startFill=0;startSize=8;endArrow=diamondThin;endFill=0;endSize=16;fontFamily=Verdana;fontSize=12;elbow=vertical;" parent="1" source="78961159f06e98e8-17" target="78961159f06e98e8-31" edge="1">
          <mxGeometry relative="1" as="geometry">
            <mxPoint x="475" y="1436.8823529411764" as="sourcePoint" />
            <Array as="points">
              <mxPoint x="530" y="1300" />
            </Array>
          </mxGeometry>
        </mxCell>
        <mxCell id="a5qGw5WAIlKBjk8DeZCX-5" value="" style="endArrow=block;dashed=1;endFill=0;endSize=12;html=1;rounded=0;" parent="1" source="78961159f06e98e8-43" target="78961159f06e98e8-17" edge="1">
          <mxGeometry width="160" relative="1" as="geometry">
            <mxPoint x="370" y="1413" as="sourcePoint" />
            <mxPoint x="380" y="1253" as="targetPoint" />
            <Array as="points">
              <mxPoint x="290" y="1110" />
              <mxPoint x="390" y="1110" />
            </Array>
          </mxGeometry>
        </mxCell>
        <mxCell id="a5qGw5WAIlKBjk8DeZCX-6" value="FullType" style="swimlane;html=1;fontStyle=1;align=center;verticalAlign=top;childLayout=stackLayout;horizontal=1;startSize=26;horizontalStack=0;resizeParent=1;resizeLast=0;collapsible=1;marginBottom=0;swimlaneFillColor=#ffffff;rounded=0;shadow=0;comic=0;labelBackgroundColor=none;strokeWidth=1;fillColor=none;fontFamily=Verdana;fontSize=12" parent="1" vertex="1">
          <mxGeometry x="410" y="1000" width="160" height="80" as="geometry" />
        </mxCell>
        <mxCell id="a5qGw5WAIlKBjk8DeZCX-7" value="" style="line;html=1;strokeWidth=1;fillColor=none;align=left;verticalAlign=middle;spacingTop=-1;spacingLeft=3;spacingRight=3;rotatable=0;labelPosition=right;points=[];portConstraint=eastwest;" parent="a5qGw5WAIlKBjk8DeZCX-6" vertex="1">
          <mxGeometry y="26" width="160" height="8" as="geometry" />
        </mxCell>
        <mxCell id="a5qGw5WAIlKBjk8DeZCX-8" value="+ execute(): bool" style="text;html=1;strokeColor=none;fillColor=none;align=left;verticalAlign=top;spacingLeft=4;spacingRight=4;whiteSpace=wrap;overflow=hidden;rotatable=0;points=[[0,0.5],[1,0.5]];portConstraint=eastwest;" parent="a5qGw5WAIlKBjk8DeZCX-6" vertex="1">
          <mxGeometry y="34" width="160" height="26" as="geometry" />
        </mxCell>
        <mxCell id="a5qGw5WAIlKBjk8DeZCX-9" value="" style="endArrow=block;dashed=1;endFill=0;endSize=12;html=1;rounded=0;" parent="1" source="a5qGw5WAIlKBjk8DeZCX-6" target="78961159f06e98e8-17" edge="1">
          <mxGeometry width="160" relative="1" as="geometry">
            <mxPoint x="294" y="1293" as="sourcePoint" />
            <mxPoint x="380" y="1253" as="targetPoint" />
            <Array as="points">
              <mxPoint x="490" y="1110" />
              <mxPoint x="390" y="1110" />
            </Array>
          </mxGeometry>
        </mxCell>
        <mxCell id="a5qGw5WAIlKBjk8DeZCX-11" value="BackUpTypeFactory" style="swimlane;html=1;fontStyle=1;align=center;verticalAlign=top;childLayout=stackLayout;horizontal=1;startSize=26;horizontalStack=0;resizeParent=1;resizeLast=0;collapsible=1;marginBottom=0;swimlaneFillColor=#ffffff;rounded=0;shadow=0;comic=0;labelBackgroundColor=none;strokeWidth=1;fillColor=none;fontFamily=Verdana;fontSize=12" parent="1" vertex="1">
          <mxGeometry x="-5" y="1140.5" width="200" height="100" as="geometry" />
        </mxCell>
        <mxCell id="a5qGw5WAIlKBjk8DeZCX-16" value="- type : string" style="text;html=1;strokeColor=none;fillColor=none;align=left;verticalAlign=top;spacingLeft=4;spacingRight=4;whiteSpace=wrap;overflow=hidden;rotatable=0;points=[[0,0.5],[1,0.5]];portConstraint=eastwest;" parent="a5qGw5WAIlKBjk8DeZCX-11" vertex="1">
          <mxGeometry y="26" width="200" height="26" as="geometry" />
        </mxCell>
        <mxCell id="a5qGw5WAIlKBjk8DeZCX-17" value="" style="line;html=1;strokeWidth=1;fillColor=none;align=left;verticalAlign=middle;spacingTop=-1;spacingLeft=3;spacingRight=3;rotatable=0;labelPosition=right;points=[];portConstraint=eastwest;" parent="a5qGw5WAIlKBjk8DeZCX-11" vertex="1">
          <mxGeometry y="52" width="200" height="8" as="geometry" />
        </mxCell>
        <mxCell id="a5qGw5WAIlKBjk8DeZCX-18" value="+ getBackLogType() : IBackUpType" style="text;html=1;strokeColor=none;fillColor=none;align=left;verticalAlign=top;spacingLeft=4;spacingRight=4;whiteSpace=wrap;overflow=hidden;rotatable=0;points=[[0,0.5],[1,0.5]];portConstraint=eastwest;" parent="a5qGw5WAIlKBjk8DeZCX-11" vertex="1">
          <mxGeometry y="60" width="200" height="36" as="geometry" />
        </mxCell>
        <mxCell id="a5qGw5WAIlKBjk8DeZCX-24" value="&lt;span style=&quot;font-weight: normal;&quot;&gt;&lt;i&gt;&amp;lt;&amp;lt;Interface&amp;gt;&amp;gt;&lt;br&gt;&lt;/i&gt;&lt;/span&gt;IJobs" style="swimlane;html=1;fontStyle=1;align=center;verticalAlign=top;childLayout=stackLayout;horizontal=1;startSize=40;horizontalStack=0;resizeParent=1;resizeLast=0;collapsible=1;marginBottom=0;swimlaneFillColor=#ffffff;rounded=0;shadow=0;comic=0;labelBackgroundColor=none;strokeWidth=1;fillColor=none;fontFamily=Verdana;fontSize=12" parent="1" vertex="1">
          <mxGeometry x="655" y="950" width="200" height="282" as="geometry" />
        </mxCell>
        <mxCell id="a5qGw5WAIlKBjk8DeZCX-25" value="- executiontype : IExecutionType" style="text;html=1;strokeColor=none;fillColor=none;align=left;verticalAlign=top;spacingLeft=4;spacingRight=4;whiteSpace=wrap;overflow=hidden;rotatable=0;points=[[0,0.5],[1,0.5]];portConstraint=eastwest;" parent="a5qGw5WAIlKBjk8DeZCX-24" vertex="1">
          <mxGeometry y="40" width="200" height="26" as="geometry" />
        </mxCell>
        <mxCell id="a5qGw5WAIlKBjk8DeZCX-26" value="- name : string" style="text;html=1;strokeColor=none;fillColor=none;align=left;verticalAlign=top;spacingLeft=4;spacingRight=4;whiteSpace=wrap;overflow=hidden;rotatable=0;points=[[0,0.5],[1,0.5]];portConstraint=eastwest;" parent="a5qGw5WAIlKBjk8DeZCX-24" vertex="1">
          <mxGeometry y="66" width="200" height="26" as="geometry" />
        </mxCell>
        <mxCell id="a5qGw5WAIlKBjk8DeZCX-27" value="- source : string" style="text;html=1;strokeColor=none;fillColor=none;align=left;verticalAlign=top;spacingLeft=4;spacingRight=4;whiteSpace=wrap;overflow=hidden;rotatable=0;points=[[0,0.5],[1,0.5]];portConstraint=eastwest;" parent="a5qGw5WAIlKBjk8DeZCX-24" vertex="1">
          <mxGeometry y="92" width="200" height="26" as="geometry" />
        </mxCell>
        <mxCell id="a5qGw5WAIlKBjk8DeZCX-28" value="- target : string" style="text;html=1;strokeColor=none;fillColor=none;align=left;verticalAlign=top;spacingLeft=4;spacingRight=4;whiteSpace=wrap;overflow=hidden;rotatable=0;points=[[0,0.5],[1,0.5]];portConstraint=eastwest;" parent="a5qGw5WAIlKBjk8DeZCX-24" vertex="1">
          <mxGeometry y="118" width="200" height="26" as="geometry" />
        </mxCell>
        <mxCell id="a5qGw5WAIlKBjk8DeZCX-29" value="- type : string" style="text;html=1;strokeColor=none;fillColor=none;align=left;verticalAlign=top;spacingLeft=4;spacingRight=4;whiteSpace=wrap;overflow=hidden;rotatable=0;points=[[0,0.5],[1,0.5]];portConstraint=eastwest;" parent="a5qGw5WAIlKBjk8DeZCX-24" vertex="1">
          <mxGeometry y="144" width="200" height="26" as="geometry" />
        </mxCell>
        <mxCell id="a5qGw5WAIlKBjk8DeZCX-30" value="" style="line;html=1;strokeWidth=1;fillColor=none;align=left;verticalAlign=middle;spacingTop=-1;spacingLeft=3;spacingRight=3;rotatable=0;labelPosition=right;points=[];portConstraint=eastwest;" parent="a5qGw5WAIlKBjk8DeZCX-24" vertex="1">
          <mxGeometry y="170" width="200" height="8" as="geometry" />
        </mxCell>
        <mxCell id="a5qGw5WAIlKBjk8DeZCX-31" value="+ run() : bool" style="text;html=1;strokeColor=none;fillColor=none;align=left;verticalAlign=top;spacingLeft=4;spacingRight=4;whiteSpace=wrap;overflow=hidden;rotatable=0;points=[[0,0.5],[1,0.5]];portConstraint=eastwest;" parent="a5qGw5WAIlKBjk8DeZCX-24" vertex="1">
          <mxGeometry y="178" width="200" height="26" as="geometry" />
        </mxCell>
        <mxCell id="a5qGw5WAIlKBjk8DeZCX-90" value="+ createJob() : bool" style="text;html=1;strokeColor=none;fillColor=none;align=left;verticalAlign=top;spacingLeft=4;spacingRight=4;whiteSpace=wrap;overflow=hidden;rotatable=0;points=[[0,0.5],[1,0.5]];portConstraint=eastwest;" parent="a5qGw5WAIlKBjk8DeZCX-24" vertex="1">
          <mxGeometry y="204" width="200" height="26" as="geometry" />
        </mxCell>
        <mxCell id="a5qGw5WAIlKBjk8DeZCX-32" value="+ alterJob() : bool" style="text;html=1;strokeColor=none;fillColor=none;align=left;verticalAlign=top;spacingLeft=4;spacingRight=4;whiteSpace=wrap;overflow=hidden;rotatable=0;points=[[0,0.5],[1,0.5]];portConstraint=eastwest;" parent="a5qGw5WAIlKBjk8DeZCX-24" vertex="1">
          <mxGeometry y="230" width="200" height="26" as="geometry" />
        </mxCell>
        <mxCell id="a5qGw5WAIlKBjk8DeZCX-33" value="+ deleteJob() : bool" style="text;html=1;strokeColor=none;fillColor=none;align=left;verticalAlign=top;spacingLeft=4;spacingRight=4;whiteSpace=wrap;overflow=hidden;rotatable=0;points=[[0,0.5],[1,0.5]];portConstraint=eastwest;" parent="a5qGw5WAIlKBjk8DeZCX-24" vertex="1">
          <mxGeometry y="256" width="200" height="26" as="geometry" />
        </mxCell>
        <mxCell id="a5qGw5WAIlKBjk8DeZCX-34" value="" style="endArrow=block;dashed=1;endFill=0;endSize=12;html=1;rounded=0;entryX=0.5;entryY=1;entryDx=0;entryDy=0;exitX=0.5;exitY=0;exitDx=0;exitDy=0;" parent="1" source="78961159f06e98e8-30" target="a5qGw5WAIlKBjk8DeZCX-24" edge="1">
          <mxGeometry width="160" relative="1" as="geometry">
            <mxPoint x="750" y="1227" as="sourcePoint" />
            <mxPoint x="786" y="1200" as="targetPoint" />
          </mxGeometry>
        </mxCell>
        <mxCell id="a5qGw5WAIlKBjk8DeZCX-36" value="DifferentialTypeFactory" style="swimlane;html=1;fontStyle=1;align=center;verticalAlign=top;childLayout=stackLayout;horizontal=1;startSize=26;horizontalStack=0;resizeParent=1;resizeLast=0;collapsible=1;marginBottom=0;swimlaneFillColor=#ffffff;rounded=0;shadow=0;comic=0;labelBackgroundColor=none;strokeWidth=1;fillColor=none;fontFamily=Verdana;fontSize=12" parent="1" vertex="1">
          <mxGeometry x="-250" y="1096" width="210" height="70" as="geometry" />
        </mxCell>
        <mxCell id="a5qGw5WAIlKBjk8DeZCX-37" value="" style="line;html=1;strokeWidth=1;fillColor=none;align=left;verticalAlign=middle;spacingTop=-1;spacingLeft=3;spacingRight=3;rotatable=0;labelPosition=right;points=[];portConstraint=eastwest;" parent="a5qGw5WAIlKBjk8DeZCX-36" vertex="1">
          <mxGeometry y="26" width="210" height="8" as="geometry" />
        </mxCell>
        <mxCell id="a5qGw5WAIlKBjk8DeZCX-38" value="+ getBackLogType(): DifferentialType" style="text;html=1;strokeColor=none;fillColor=none;align=left;verticalAlign=top;spacingLeft=4;spacingRight=4;whiteSpace=wrap;overflow=hidden;rotatable=0;points=[[0,0.5],[1,0.5]];portConstraint=eastwest;" parent="a5qGw5WAIlKBjk8DeZCX-36" vertex="1">
          <mxGeometry y="34" width="210" height="36" as="geometry" />
        </mxCell>
        <mxCell id="a5qGw5WAIlKBjk8DeZCX-39" value="FullTypeFactory" style="swimlane;html=1;fontStyle=1;align=center;verticalAlign=top;childLayout=stackLayout;horizontal=1;startSize=26;horizontalStack=0;resizeParent=1;resizeLast=0;collapsible=1;marginBottom=0;swimlaneFillColor=#ffffff;rounded=0;shadow=0;comic=0;labelBackgroundColor=none;strokeWidth=1;fillColor=none;fontFamily=Verdana;fontSize=12" parent="1" vertex="1">
          <mxGeometry x="-230" y="1230" width="175" height="56" as="geometry" />
        </mxCell>
        <mxCell id="a5qGw5WAIlKBjk8DeZCX-41" value="+ getBackLogType(): FullType" style="text;html=1;strokeColor=none;fillColor=none;align=left;verticalAlign=top;spacingLeft=4;spacingRight=4;whiteSpace=wrap;overflow=hidden;rotatable=0;points=[[0,0.5],[1,0.5]];portConstraint=eastwest;" parent="a5qGw5WAIlKBjk8DeZCX-39" vertex="1">
          <mxGeometry y="26" width="175" height="26" as="geometry" />
        </mxCell>
        <mxCell id="a5qGw5WAIlKBjk8DeZCX-43" value="&lt;br&gt;" style="endArrow=block;endSize=16;endFill=0;html=1;rounded=0;" parent="1" source="a5qGw5WAIlKBjk8DeZCX-39" target="a5qGw5WAIlKBjk8DeZCX-11" edge="1">
          <mxGeometry width="160" relative="1" as="geometry">
            <mxPoint x="-10" y="1427.5" as="sourcePoint" />
            <mxPoint x="115" y="1396.5" as="targetPoint" />
            <Array as="points">
              <mxPoint x="-145" y="1191" />
            </Array>
          </mxGeometry>
        </mxCell>
        <mxCell id="a5qGw5WAIlKBjk8DeZCX-44" value="&lt;br&gt;" style="endArrow=open;endSize=12;dashed=1;html=1;rounded=0;entryX=0;entryY=0.5;entryDx=0;entryDy=0;" parent="1" source="a5qGw5WAIlKBjk8DeZCX-11" target="78961159f06e98e8-17" edge="1">
          <mxGeometry x="0.0017" width="160" relative="1" as="geometry">
            <mxPoint x="385" y="1276" as="sourcePoint" />
            <mxPoint x="545" y="1276" as="targetPoint" />
            <mxPoint as="offset" />
          </mxGeometry>
        </mxCell>
        <mxCell id="a5qGw5WAIlKBjk8DeZCX-56" value="&lt;i style=&quot;font-weight: normal;&quot;&gt;&amp;lt;&amp;lt;Singleton&amp;gt;&amp;gt;&lt;br&gt;&lt;/i&gt;StatusLog" style="swimlane;html=1;fontStyle=1;align=center;verticalAlign=top;childLayout=stackLayout;horizontal=1;startSize=48;horizontalStack=0;resizeParent=1;resizeLast=0;collapsible=1;marginBottom=0;swimlaneFillColor=#ffffff;rounded=0;shadow=0;comic=0;labelBackgroundColor=none;strokeWidth=1;fillColor=none;fontFamily=Verdana;fontSize=12" parent="1" vertex="1">
          <mxGeometry x="570" y="1610" width="160" height="290" as="geometry" />
        </mxCell>
        <mxCell id="a5qGw5WAIlKBjk8DeZCX-57" value="+ jobname : string" style="text;html=1;strokeColor=none;fillColor=none;align=left;verticalAlign=top;spacingLeft=4;spacingRight=4;whiteSpace=wrap;overflow=hidden;rotatable=0;points=[[0,0.5],[1,0.5]];portConstraint=eastwest;" parent="a5qGw5WAIlKBjk8DeZCX-56" vertex="1">
          <mxGeometry y="48" width="160" height="26" as="geometry" />
        </mxCell>
        <mxCell id="a5qGw5WAIlKBjk8DeZCX-58" value="+ logpath : string" style="text;html=1;strokeColor=none;fillColor=none;align=left;verticalAlign=top;spacingLeft=4;spacingRight=4;whiteSpace=wrap;overflow=hidden;rotatable=0;points=[[0,0.5],[1,0.5]];portConstraint=eastwest;" parent="a5qGw5WAIlKBjk8DeZCX-56" vertex="1">
          <mxGeometry y="74" width="160" height="26" as="geometry" />
        </mxCell>
        <mxCell id="a5qGw5WAIlKBjk8DeZCX-61" value="+ field: type" style="text;html=1;strokeColor=none;fillColor=none;align=left;verticalAlign=top;spacingLeft=4;spacingRight=4;whiteSpace=wrap;overflow=hidden;rotatable=0;points=[[0,0.5],[1,0.5]];portConstraint=eastwest;" parent="a5qGw5WAIlKBjk8DeZCX-56" vertex="1">
          <mxGeometry y="100" width="160" height="26" as="geometry" />
        </mxCell>
        <mxCell id="a5qGw5WAIlKBjk8DeZCX-62" value="+ field: type" style="text;html=1;strokeColor=none;fillColor=none;align=left;verticalAlign=top;spacingLeft=4;spacingRight=4;whiteSpace=wrap;overflow=hidden;rotatable=0;points=[[0,0.5],[1,0.5]];portConstraint=eastwest;" parent="a5qGw5WAIlKBjk8DeZCX-56" vertex="1">
          <mxGeometry y="126" width="160" height="26" as="geometry" />
        </mxCell>
        <mxCell id="a5qGw5WAIlKBjk8DeZCX-63" value="" style="line;html=1;strokeWidth=1;fillColor=none;align=left;verticalAlign=middle;spacingTop=-1;spacingLeft=3;spacingRight=3;rotatable=0;labelPosition=right;points=[];portConstraint=eastwest;" parent="a5qGw5WAIlKBjk8DeZCX-56" vertex="1">
          <mxGeometry y="152" width="160" height="8" as="geometry" />
        </mxCell>
        <mxCell id="a5qGw5WAIlKBjk8DeZCX-64" value="+ getInstance(): StatusLog" style="text;html=1;strokeColor=none;fillColor=none;align=left;verticalAlign=top;spacingLeft=4;spacingRight=4;whiteSpace=wrap;overflow=hidden;rotatable=0;points=[[0,0.5],[1,0.5]];portConstraint=eastwest;" parent="a5qGw5WAIlKBjk8DeZCX-56" vertex="1">
          <mxGeometry y="160" width="160" height="26" as="geometry" />
        </mxCell>
        <mxCell id="a5qGw5WAIlKBjk8DeZCX-53" value="+ WriteLog() : void" style="text;html=1;strokeColor=none;fillColor=none;align=left;verticalAlign=top;spacingLeft=4;spacingRight=4;whiteSpace=wrap;overflow=hidden;rotatable=0;points=[[0,0.5],[1,0.5]];portConstraint=eastwest;" parent="a5qGw5WAIlKBjk8DeZCX-56" vertex="1">
          <mxGeometry y="186" width="160" height="26" as="geometry" />
        </mxCell>
        <mxCell id="a5qGw5WAIlKBjk8DeZCX-92" value="" style="endArrow=block;dashed=1;endFill=0;endSize=12;html=1;rounded=0;" parent="1" source="a5qGw5WAIlKBjk8DeZCX-56" target="78961159f06e98e8-30" edge="1">
          <mxGeometry width="160" relative="1" as="geometry">
            <mxPoint x="450" y="1350" as="sourcePoint" />
            <mxPoint x="610" y="1350" as="targetPoint" />
          </mxGeometry>
        </mxCell>
        <mxCell id="a5qGw5WAIlKBjk8DeZCX-93" value="" style="endArrow=block;dashed=1;endFill=0;endSize=12;html=1;rounded=0;" parent="1" source="78961159f06e98e8-69" target="78961159f06e98e8-30" edge="1">
          <mxGeometry width="160" relative="1" as="geometry">
            <mxPoint x="615" y="1548" as="sourcePoint" />
            <mxPoint x="100" y="1480" as="targetPoint" />
          </mxGeometry>
        </mxCell>
        <mxCell id="a5qGw5WAIlKBjk8DeZCX-96" value="ViewModel" style="shape=umlFrame;whiteSpace=wrap;html=1;pointerEvents=0;strokeColor=#FFF0CF;fillColor=#FFF2C7;shadow=1;width=80;height=30;" parent="1" vertex="1">
          <mxGeometry x="-670" y="-1270" width="2640" height="1590" as="geometry" />
        </mxCell>
        <mxCell id="a5qGw5WAIlKBjk8DeZCX-149" value="&lt;br&gt;" style="endArrow=block;endSize=16;endFill=0;html=1;rounded=0;" parent="1" source="a5qGw5WAIlKBjk8DeZCX-36" target="a5qGw5WAIlKBjk8DeZCX-11" edge="1">
          <mxGeometry width="160" relative="1" as="geometry">
            <mxPoint x="-135" y="1236" as="sourcePoint" />
            <mxPoint x="5" y="1201" as="targetPoint" />
            <Array as="points">
              <mxPoint x="-145" y="1191" />
            </Array>
          </mxGeometry>
        </mxCell>
        <mxCell id="8m_SzLdECYq5h24U5q7m-1" value="MainWindow" style="swimlane;html=1;fontStyle=1;align=center;verticalAlign=top;childLayout=stackLayout;horizontal=1;startSize=26;horizontalStack=0;resizeParent=1;resizeLast=0;collapsible=1;marginBottom=0;swimlaneFillColor=#ffffff;rounded=0;shadow=0;comic=0;labelBackgroundColor=none;strokeWidth=1;fillColor=none;fontFamily=Verdana;fontSize=12" vertex="1" parent="1">
          <mxGeometry x="-220" y="-1505" width="200" height="75" as="geometry" />
        </mxCell>
        <mxCell id="8m_SzLdECYq5h24U5q7m-3" value="" style="line;html=1;strokeWidth=1;fillColor=none;align=left;verticalAlign=middle;spacingTop=-1;spacingLeft=3;spacingRight=3;rotatable=0;labelPosition=right;points=[];portConstraint=eastwest;" vertex="1" parent="8m_SzLdECYq5h24U5q7m-1">
          <mxGeometry y="26" width="200" height="10" as="geometry" />
        </mxCell>
        <mxCell id="8m_SzLdECYq5h24U5q7m-4" value="+ MainWindow()" style="text;html=1;strokeColor=none;fillColor=none;align=left;verticalAlign=top;spacingLeft=4;spacingRight=4;whiteSpace=wrap;overflow=hidden;rotatable=0;points=[[0,0.5],[1,0.5]];portConstraint=eastwest;" vertex="1" parent="8m_SzLdECYq5h24U5q7m-1">
          <mxGeometry y="36" width="200" height="34" as="geometry" />
        </mxCell>
        <mxCell id="8m_SzLdECYq5h24U5q7m-6" value="SettingsWindow" style="swimlane;html=1;fontStyle=1;align=center;verticalAlign=top;childLayout=stackLayout;horizontal=1;startSize=26;horizontalStack=0;resizeParent=1;resizeLast=0;collapsible=1;marginBottom=0;swimlaneFillColor=#ffffff;rounded=0;shadow=0;comic=0;labelBackgroundColor=none;strokeWidth=1;fillColor=none;fontFamily=Verdana;fontSize=12" vertex="1" parent="1">
          <mxGeometry x="390" y="-1510" width="200" height="75" as="geometry" />
        </mxCell>
        <mxCell id="8m_SzLdECYq5h24U5q7m-7" value="" style="line;html=1;strokeWidth=1;fillColor=none;align=left;verticalAlign=middle;spacingTop=-1;spacingLeft=3;spacingRight=3;rotatable=0;labelPosition=right;points=[];portConstraint=eastwest;" vertex="1" parent="8m_SzLdECYq5h24U5q7m-6">
          <mxGeometry y="26" width="200" height="10" as="geometry" />
        </mxCell>
        <mxCell id="8m_SzLdECYq5h24U5q7m-8" value="+ SettingsWindow()" style="text;html=1;strokeColor=none;fillColor=none;align=left;verticalAlign=top;spacingLeft=4;spacingRight=4;whiteSpace=wrap;overflow=hidden;rotatable=0;points=[[0,0.5],[1,0.5]];portConstraint=eastwest;" vertex="1" parent="8m_SzLdECYq5h24U5q7m-6">
          <mxGeometry y="36" width="200" height="34" as="geometry" />
        </mxCell>
        <mxCell id="8m_SzLdECYq5h24U5q7m-9" value="BackUpWindow" style="swimlane;html=1;fontStyle=1;align=center;verticalAlign=top;childLayout=stackLayout;horizontal=1;startSize=26;horizontalStack=0;resizeParent=1;resizeLast=0;collapsible=1;marginBottom=0;swimlaneFillColor=#ffffff;rounded=0;shadow=0;comic=0;labelBackgroundColor=none;strokeWidth=1;fillColor=none;fontFamily=Verdana;fontSize=12" vertex="1" parent="1">
          <mxGeometry x="20" y="-1530" width="340" height="150" as="geometry" />
        </mxCell>
        <mxCell id="8m_SzLdECYq5h24U5q7m-10" value="" style="line;html=1;strokeWidth=1;fillColor=none;align=left;verticalAlign=middle;spacingTop=-1;spacingLeft=3;spacingRight=3;rotatable=0;labelPosition=right;points=[];portConstraint=eastwest;" vertex="1" parent="8m_SzLdECYq5h24U5q7m-9">
          <mxGeometry y="26" width="340" height="10" as="geometry" />
        </mxCell>
        <mxCell id="8m_SzLdECYq5h24U5q7m-11" value="+ BackUpWindow(BackUpViewModel vm)" style="text;html=1;strokeColor=none;fillColor=none;align=left;verticalAlign=top;spacingLeft=4;spacingRight=4;whiteSpace=wrap;overflow=hidden;rotatable=0;points=[[0,0.5],[1,0.5]];portConstraint=eastwest;" vertex="1" parent="8m_SzLdECYq5h24U5q7m-9">
          <mxGeometry y="36" width="340" height="34" as="geometry" />
        </mxCell>
        <mxCell id="8m_SzLdECYq5h24U5q7m-12" value="+ BrowseSource_Click(object sender, RoutedEventArgs e)" style="text;html=1;strokeColor=none;fillColor=none;align=left;verticalAlign=top;spacingLeft=4;spacingRight=4;whiteSpace=wrap;overflow=hidden;rotatable=0;points=[[0,0.5],[1,0.5]];portConstraint=eastwest;" vertex="1" parent="8m_SzLdECYq5h24U5q7m-9">
          <mxGeometry y="70" width="340" height="34" as="geometry" />
        </mxCell>
        <mxCell id="8m_SzLdECYq5h24U5q7m-13" value="+ BrowseTarget_Click(object sender, RoutedEventArgs e)" style="text;html=1;strokeColor=none;fillColor=none;align=left;verticalAlign=top;spacingLeft=4;spacingRight=4;whiteSpace=wrap;overflow=hidden;rotatable=0;points=[[0,0.5],[1,0.5]];portConstraint=eastwest;" vertex="1" parent="8m_SzLdECYq5h24U5q7m-9">
          <mxGeometry y="104" width="340" height="34" as="geometry" />
        </mxCell>
        <mxCell id="8m_SzLdECYq5h24U5q7m-14" value="Window" style="swimlane;html=1;fontStyle=1;align=center;verticalAlign=top;childLayout=stackLayout;horizontal=1;startSize=26;horizontalStack=0;resizeParent=1;resizeLast=0;collapsible=1;marginBottom=0;swimlaneFillColor=#ffffff;rounded=0;shadow=0;comic=0;labelBackgroundColor=none;strokeWidth=1;fillColor=none;fontFamily=Verdana;fontSize=12" vertex="1" parent="1">
          <mxGeometry x="90" y="-1660" width="200" height="40" as="geometry" />
        </mxCell>
        <mxCell id="8m_SzLdECYq5h24U5q7m-15" value="" style="line;html=1;strokeWidth=1;fillColor=none;align=left;verticalAlign=middle;spacingTop=-1;spacingLeft=3;spacingRight=3;rotatable=0;labelPosition=right;points=[];portConstraint=eastwest;" vertex="1" parent="8m_SzLdECYq5h24U5q7m-14">
          <mxGeometry y="26" width="200" height="10" as="geometry" />
        </mxCell>
        <mxCell id="8m_SzLdECYq5h24U5q7m-17" value="" style="endArrow=block;dashed=1;endFill=0;endSize=12;html=1;rounded=0;" edge="1" parent="1" source="8m_SzLdECYq5h24U5q7m-9" target="8m_SzLdECYq5h24U5q7m-14">
          <mxGeometry width="160" relative="1" as="geometry">
            <mxPoint x="30" y="-1370" as="sourcePoint" />
            <mxPoint x="190" y="-1370" as="targetPoint" />
          </mxGeometry>
        </mxCell>
        <mxCell id="8m_SzLdECYq5h24U5q7m-18" value="" style="endArrow=block;dashed=1;endFill=0;endSize=12;html=1;rounded=0;" edge="1" parent="1" source="8m_SzLdECYq5h24U5q7m-6" target="8m_SzLdECYq5h24U5q7m-14">
          <mxGeometry width="160" relative="1" as="geometry">
            <mxPoint x="190" y="-1520" as="sourcePoint" />
            <mxPoint x="190" y="-1605" as="targetPoint" />
            <Array as="points" />
          </mxGeometry>
        </mxCell>
        <mxCell id="8m_SzLdECYq5h24U5q7m-19" value="" style="endArrow=block;dashed=1;endFill=0;endSize=12;html=1;rounded=0;" edge="1" parent="1" source="8m_SzLdECYq5h24U5q7m-1" target="8m_SzLdECYq5h24U5q7m-14">
          <mxGeometry width="160" relative="1" as="geometry">
            <mxPoint x="435" y="-1500" as="sourcePoint" />
            <mxPoint x="255" y="-1605" as="targetPoint" />
          </mxGeometry>
        </mxCell>
        <mxCell id="8m_SzLdECYq5h24U5q7m-20" value="MessageBoxNotifier" style="swimlane;html=1;fontStyle=1;align=center;verticalAlign=top;childLayout=stackLayout;horizontal=1;startSize=42;horizontalStack=0;resizeParent=1;resizeLast=0;collapsible=1;marginBottom=0;swimlaneFillColor=#ffffff;rounded=0;shadow=0;comic=0;labelBackgroundColor=none;strokeWidth=1;fillColor=none;fontFamily=Verdana;fontSize=12" vertex="1" parent="1">
          <mxGeometry x="1510" y="-1435" width="190" height="70" as="geometry" />
        </mxCell>
        <mxCell id="8m_SzLdECYq5h24U5q7m-21" value="" style="line;html=1;strokeWidth=1;fillColor=none;align=left;verticalAlign=middle;spacingTop=-1;spacingLeft=3;spacingRight=3;rotatable=0;labelPosition=right;points=[];portConstraint=eastwest;" vertex="1" parent="8m_SzLdECYq5h24U5q7m-20">
          <mxGeometry y="42" width="190" height="4" as="geometry" />
        </mxCell>
        <mxCell id="8m_SzLdECYq5h24U5q7m-25" value="FileDialogService" style="swimlane;html=1;fontStyle=1;align=center;verticalAlign=top;childLayout=stackLayout;horizontal=1;startSize=42;horizontalStack=0;resizeParent=1;resizeLast=0;collapsible=1;marginBottom=0;swimlaneFillColor=#ffffff;rounded=0;shadow=0;comic=0;labelBackgroundColor=none;strokeWidth=1;fillColor=none;fontFamily=Verdana;fontSize=12" vertex="1" parent="1">
          <mxGeometry x="1790" y="-1420" width="190" height="55" as="geometry" />
        </mxCell>
        <mxCell id="8m_SzLdECYq5h24U5q7m-26" value="" style="line;html=1;strokeWidth=1;fillColor=none;align=left;verticalAlign=middle;spacingTop=-1;spacingLeft=3;spacingRight=3;rotatable=0;labelPosition=right;points=[];portConstraint=eastwest;" vertex="1" parent="8m_SzLdECYq5h24U5q7m-25">
          <mxGeometry y="42" width="190" height="4" as="geometry" />
        </mxCell>
        <mxCell id="8m_SzLdECYq5h24U5q7m-30" value="NavigationService" style="swimlane;html=1;fontStyle=1;align=center;verticalAlign=top;childLayout=stackLayout;horizontal=1;startSize=42;horizontalStack=0;resizeParent=1;resizeLast=0;collapsible=1;marginBottom=0;swimlaneFillColor=#ffffff;rounded=0;shadow=0;comic=0;labelBackgroundColor=none;strokeWidth=1;fillColor=none;fontFamily=Verdana;fontSize=12" vertex="1" parent="1">
          <mxGeometry x="1660" y="-1540" width="290" height="70" as="geometry" />
        </mxCell>
        <mxCell id="8m_SzLdECYq5h24U5q7m-31" value="" style="line;html=1;strokeWidth=1;fillColor=none;align=left;verticalAlign=middle;spacingTop=-1;spacingLeft=3;spacingRight=3;rotatable=0;labelPosition=right;points=[];portConstraint=eastwest;" vertex="1" parent="8m_SzLdECYq5h24U5q7m-30">
          <mxGeometry y="42" width="290" height="4" as="geometry" />
        </mxCell>
        <mxCell id="8m_SzLdECYq5h24U5q7m-38" value="InverseBooleanConverter" style="swimlane;html=1;fontStyle=1;align=center;verticalAlign=top;childLayout=stackLayout;horizontal=1;startSize=42;horizontalStack=0;resizeParent=1;resizeLast=0;collapsible=1;marginBottom=0;swimlaneFillColor=#ffffff;rounded=0;shadow=0;comic=0;labelBackgroundColor=none;strokeWidth=1;fillColor=none;fontFamily=Verdana;fontSize=12" vertex="1" parent="1">
          <mxGeometry x="720" y="-1505" width="330" height="160" as="geometry" />
        </mxCell>
        <mxCell id="8m_SzLdECYq5h24U5q7m-40" value="+ NavigateToMenu() : void" style="text;html=1;strokeColor=none;fillColor=none;align=left;verticalAlign=top;spacingLeft=4;spacingRight=4;whiteSpace=wrap;overflow=hidden;rotatable=0;points=[[0,0.5],[1,0.5]];portConstraint=eastwest;" vertex="1" parent="8m_SzLdECYq5h24U5q7m-38">
          <mxGeometry y="42" width="330" height="34" as="geometry" />
        </mxCell>
        <mxCell id="8m_SzLdECYq5h24U5q7m-39" value="" style="line;html=1;strokeWidth=1;fillColor=none;align=left;verticalAlign=middle;spacingTop=-1;spacingLeft=3;spacingRight=3;rotatable=0;labelPosition=right;points=[];portConstraint=eastwest;" vertex="1" parent="8m_SzLdECYq5h24U5q7m-38">
          <mxGeometry y="76" width="330" height="4" as="geometry" />
        </mxCell>
        <mxCell id="8m_SzLdECYq5h24U5q7m-41" value="+ Convert(object, Type, object, CultureInfo) : object" style="text;html=1;strokeColor=none;fillColor=none;align=left;verticalAlign=top;spacingLeft=4;spacingRight=4;whiteSpace=wrap;overflow=hidden;rotatable=0;points=[[0,0.5],[1,0.5]];portConstraint=eastwest;" vertex="1" parent="8m_SzLdECYq5h24U5q7m-38">
          <mxGeometry y="80" width="330" height="34" as="geometry" />
        </mxCell>
        <mxCell id="8m_SzLdECYq5h24U5q7m-42" value="+ ConvertBack(object, Type, object, CultureInfo) : object" style="text;html=1;strokeColor=none;fillColor=none;align=left;verticalAlign=top;spacingLeft=4;spacingRight=4;whiteSpace=wrap;overflow=hidden;rotatable=0;points=[[0,0.5],[1,0.5]];portConstraint=eastwest;" vertex="1" parent="8m_SzLdECYq5h24U5q7m-38">
          <mxGeometry y="114" width="330" height="34" as="geometry" />
        </mxCell>
        <mxCell id="8m_SzLdECYq5h24U5q7m-47" value="InverseBooleanToVisibilityConverter" style="swimlane;html=1;fontStyle=1;align=center;verticalAlign=top;childLayout=stackLayout;horizontal=1;startSize=42;horizontalStack=0;resizeParent=1;resizeLast=0;collapsible=1;marginBottom=0;swimlaneFillColor=#ffffff;rounded=0;shadow=0;comic=0;labelBackgroundColor=none;strokeWidth=1;fillColor=none;fontFamily=Verdana;fontSize=12" vertex="1" parent="1">
          <mxGeometry x="1120" y="-1505" width="330" height="160" as="geometry" />
        </mxCell>
        <mxCell id="8m_SzLdECYq5h24U5q7m-48" value="+ NavigateToMenu() : void" style="text;html=1;strokeColor=none;fillColor=none;align=left;verticalAlign=top;spacingLeft=4;spacingRight=4;whiteSpace=wrap;overflow=hidden;rotatable=0;points=[[0,0.5],[1,0.5]];portConstraint=eastwest;" vertex="1" parent="8m_SzLdECYq5h24U5q7m-47">
          <mxGeometry y="42" width="330" height="34" as="geometry" />
        </mxCell>
        <mxCell id="8m_SzLdECYq5h24U5q7m-49" value="" style="line;html=1;strokeWidth=1;fillColor=none;align=left;verticalAlign=middle;spacingTop=-1;spacingLeft=3;spacingRight=3;rotatable=0;labelPosition=right;points=[];portConstraint=eastwest;" vertex="1" parent="8m_SzLdECYq5h24U5q7m-47">
          <mxGeometry y="76" width="330" height="4" as="geometry" />
        </mxCell>
        <mxCell id="8m_SzLdECYq5h24U5q7m-50" value="+ Convert(object, Type, object, CultureInfo) : object" style="text;html=1;strokeColor=none;fillColor=none;align=left;verticalAlign=top;spacingLeft=4;spacingRight=4;whiteSpace=wrap;overflow=hidden;rotatable=0;points=[[0,0.5],[1,0.5]];portConstraint=eastwest;" vertex="1" parent="8m_SzLdECYq5h24U5q7m-47">
          <mxGeometry y="80" width="330" height="34" as="geometry" />
        </mxCell>
        <mxCell id="8m_SzLdECYq5h24U5q7m-51" value="+ ConvertBack(object, Type, object, CultureInfo) : object" style="text;html=1;strokeColor=none;fillColor=none;align=left;verticalAlign=top;spacingLeft=4;spacingRight=4;whiteSpace=wrap;overflow=hidden;rotatable=0;points=[[0,0.5],[1,0.5]];portConstraint=eastwest;" vertex="1" parent="8m_SzLdECYq5h24U5q7m-47">
          <mxGeometry y="114" width="330" height="34" as="geometry" />
        </mxCell>
        <mxCell id="8m_SzLdECYq5h24U5q7m-52" value="IValueConverter&lt;br&gt;&amp;lt;&amp;lt;Interface&amp;gt;&amp;gt;" style="swimlane;html=1;fontStyle=1;align=center;verticalAlign=top;childLayout=stackLayout;horizontal=1;startSize=42;horizontalStack=0;resizeParent=1;resizeLast=0;collapsible=1;marginBottom=0;swimlaneFillColor=#ffffff;rounded=0;shadow=0;comic=0;labelBackgroundColor=none;strokeWidth=1;fillColor=none;fontFamily=Verdana;fontSize=12" vertex="1" parent="1">
          <mxGeometry x="910" y="-1226" width="330" height="160" as="geometry" />
        </mxCell>
        <mxCell id="8m_SzLdECYq5h24U5q7m-53" value="+ NavigateToMenu() : void" style="text;html=1;strokeColor=none;fillColor=none;align=left;verticalAlign=top;spacingLeft=4;spacingRight=4;whiteSpace=wrap;overflow=hidden;rotatable=0;points=[[0,0.5],[1,0.5]];portConstraint=eastwest;" vertex="1" parent="8m_SzLdECYq5h24U5q7m-52">
          <mxGeometry y="42" width="330" height="34" as="geometry" />
        </mxCell>
        <mxCell id="8m_SzLdECYq5h24U5q7m-54" value="" style="line;html=1;strokeWidth=1;fillColor=none;align=left;verticalAlign=middle;spacingTop=-1;spacingLeft=3;spacingRight=3;rotatable=0;labelPosition=right;points=[];portConstraint=eastwest;" vertex="1" parent="8m_SzLdECYq5h24U5q7m-52">
          <mxGeometry y="76" width="330" height="4" as="geometry" />
        </mxCell>
        <mxCell id="8m_SzLdECYq5h24U5q7m-55" value="+ Convert(object, Type, object, CultureInfo) : object" style="text;html=1;strokeColor=none;fillColor=none;align=left;verticalAlign=top;spacingLeft=4;spacingRight=4;whiteSpace=wrap;overflow=hidden;rotatable=0;points=[[0,0.5],[1,0.5]];portConstraint=eastwest;" vertex="1" parent="8m_SzLdECYq5h24U5q7m-52">
          <mxGeometry y="80" width="330" height="34" as="geometry" />
        </mxCell>
        <mxCell id="8m_SzLdECYq5h24U5q7m-56" value="+ ConvertBack(object, Type, object, CultureInfo) : object" style="text;html=1;strokeColor=none;fillColor=none;align=left;verticalAlign=top;spacingLeft=4;spacingRight=4;whiteSpace=wrap;overflow=hidden;rotatable=0;points=[[0,0.5],[1,0.5]];portConstraint=eastwest;" vertex="1" parent="8m_SzLdECYq5h24U5q7m-52">
          <mxGeometry y="114" width="330" height="34" as="geometry" />
        </mxCell>
        <mxCell id="8m_SzLdECYq5h24U5q7m-58" value="" style="endArrow=block;dashed=1;endFill=0;endSize=12;html=1;rounded=0;" edge="1" parent="1" source="8m_SzLdECYq5h24U5q7m-38" target="8m_SzLdECYq5h24U5q7m-52">
          <mxGeometry width="160" relative="1" as="geometry">
            <mxPoint x="26" y="-1896" as="sourcePoint" />
            <mxPoint x="-155" y="-2001" as="targetPoint" />
            <Array as="points" />
          </mxGeometry>
        </mxCell>
        <mxCell id="8m_SzLdECYq5h24U5q7m-59" value="" style="endArrow=block;dashed=1;endFill=0;endSize=12;html=1;rounded=0;" edge="1" parent="1" source="8m_SzLdECYq5h24U5q7m-47" target="8m_SzLdECYq5h24U5q7m-52">
          <mxGeometry width="160" relative="1" as="geometry">
            <mxPoint x="1050" y="-1346" as="sourcePoint" />
            <mxPoint x="1160" y="-1366" as="targetPoint" />
            <Array as="points" />
          </mxGeometry>
        </mxCell>
        <mxCell id="8m_SzLdECYq5h24U5q7m-60" value="Commands" style="shape=umlFrame;whiteSpace=wrap;html=1;pointerEvents=0;strokeColor=#FFF0CF;fillColor=#FFCE9F;shadow=1;width=80;height=30;" vertex="1" parent="1">
          <mxGeometry x="1010" y="-650" width="520" height="540" as="geometry" />
        </mxCell>
        <mxCell id="8m_SzLdECYq5h24U5q7m-62" value="&lt;b style=&quot;border-color: var(--border-color); font-family: Helvetica;&quot;&gt;RelayCommand&lt;/b&gt;" style="swimlane;html=1;fontStyle=1;align=center;verticalAlign=top;childLayout=stackLayout;horizontal=1;startSize=26;horizontalStack=0;resizeParent=1;resizeLast=0;collapsible=1;marginBottom=0;swimlaneFillColor=#ffffff;rounded=0;shadow=0;comic=0;labelBackgroundColor=none;strokeWidth=1;fillColor=none;fontFamily=Verdana;fontSize=12" vertex="1" parent="1">
          <mxGeometry x="1090" y="-400" width="360" height="180" as="geometry" />
        </mxCell>
        <mxCell id="8m_SzLdECYq5h24U5q7m-64" value="- readonly _execute : Action&amp;lt;object?&amp;gt;" style="text;html=1;strokeColor=none;fillColor=none;align=left;verticalAlign=top;spacingLeft=4;spacingRight=4;whiteSpace=wrap;overflow=hidden;rotatable=0;points=[[0,0.5],[1,0.5]];portConstraint=eastwest;" vertex="1" parent="8m_SzLdECYq5h24U5q7m-62">
          <mxGeometry y="26" width="360" height="34" as="geometry" />
        </mxCell>
        <mxCell id="8m_SzLdECYq5h24U5q7m-67" value="- readonly _canExecute: Func&amp;lt;object?, bool&amp;gt;?" style="text;html=1;strokeColor=none;fillColor=none;align=left;verticalAlign=top;spacingLeft=4;spacingRight=4;whiteSpace=wrap;overflow=hidden;rotatable=0;points=[[0,0.5],[1,0.5]];portConstraint=eastwest;" vertex="1" parent="8m_SzLdECYq5h24U5q7m-62">
          <mxGeometry y="60" width="360" height="34" as="geometry" />
        </mxCell>
        <mxCell id="8m_SzLdECYq5h24U5q7m-63" value="" style="line;html=1;strokeWidth=1;fillColor=none;align=left;verticalAlign=middle;spacingTop=-1;spacingLeft=3;spacingRight=3;rotatable=0;labelPosition=right;points=[];portConstraint=eastwest;" vertex="1" parent="8m_SzLdECYq5h24U5q7m-62">
          <mxGeometry y="94" width="360" height="10" as="geometry" />
        </mxCell>
        <mxCell id="8m_SzLdECYq5h24U5q7m-65" value="+&amp;nbsp;RelayCommand(Action&amp;lt;object?&amp;gt;, Func&amp;lt;object?, bool&amp;gt;?)" style="text;html=1;strokeColor=none;fillColor=none;align=left;verticalAlign=top;spacingLeft=4;spacingRight=4;whiteSpace=wrap;overflow=hidden;rotatable=0;points=[[0,0.5],[1,0.5]];portConstraint=eastwest;" vertex="1" parent="8m_SzLdECYq5h24U5q7m-62">
          <mxGeometry y="104" width="360" height="34" as="geometry" />
        </mxCell>
        <mxCell id="8m_SzLdECYq5h24U5q7m-70" value="+&amp;nbsp;RaiseCanExecuteChanged() : void" style="text;html=1;strokeColor=none;fillColor=none;align=left;verticalAlign=top;spacingLeft=4;spacingRight=4;whiteSpace=wrap;overflow=hidden;rotatable=0;points=[[0,0.5],[1,0.5]];portConstraint=eastwest;" vertex="1" parent="8m_SzLdECYq5h24U5q7m-62">
          <mxGeometry y="138" width="360" height="34" as="geometry" />
        </mxCell>
        <mxCell id="8m_SzLdECYq5h24U5q7m-71" value="&lt;b style=&quot;border-color: var(--border-color); font-family: Helvetica;&quot;&gt;ICommand&amp;nbsp;&lt;br&gt;&amp;lt;&amp;lt;Interface&amp;gt;&amp;gt;&lt;br&gt;&lt;/b&gt;" style="swimlane;html=1;fontStyle=1;align=center;verticalAlign=top;childLayout=stackLayout;horizontal=1;startSize=50;horizontalStack=0;resizeParent=1;resizeLast=0;collapsible=1;marginBottom=0;swimlaneFillColor=#ffffff;rounded=0;shadow=0;comic=0;labelBackgroundColor=none;strokeWidth=1;fillColor=none;fontFamily=Verdana;fontSize=12" vertex="1" parent="1">
          <mxGeometry x="1130" y="-630" width="280" height="170" as="geometry" />
        </mxCell>
        <mxCell id="8m_SzLdECYq5h24U5q7m-74" value="+ event CanExecuteChanged : EventHandler?" style="text;html=1;strokeColor=none;fillColor=none;align=left;verticalAlign=top;spacingLeft=4;spacingRight=4;whiteSpace=wrap;overflow=hidden;rotatable=0;points=[[0,0.5],[1,0.5]];portConstraint=eastwest;" vertex="1" parent="8m_SzLdECYq5h24U5q7m-71">
          <mxGeometry y="50" width="280" height="34" as="geometry" />
        </mxCell>
        <mxCell id="8m_SzLdECYq5h24U5q7m-75" value="" style="line;html=1;strokeWidth=1;fillColor=none;align=left;verticalAlign=middle;spacingTop=-1;spacingLeft=3;spacingRight=3;rotatable=0;labelPosition=right;points=[];portConstraint=eastwest;" vertex="1" parent="8m_SzLdECYq5h24U5q7m-71">
          <mxGeometry y="84" width="280" height="10" as="geometry" />
        </mxCell>
        <mxCell id="8m_SzLdECYq5h24U5q7m-72" value="+&amp;nbsp;CanExecute(object?) : bool" style="text;html=1;strokeColor=none;fillColor=none;align=left;verticalAlign=top;spacingLeft=4;spacingRight=4;whiteSpace=wrap;overflow=hidden;rotatable=0;points=[[0,0.5],[1,0.5]];portConstraint=eastwest;" vertex="1" parent="8m_SzLdECYq5h24U5q7m-71">
          <mxGeometry y="94" width="280" height="34" as="geometry" />
        </mxCell>
        <mxCell id="8m_SzLdECYq5h24U5q7m-73" value="+ Execute(object?) : void" style="text;html=1;strokeColor=none;fillColor=none;align=left;verticalAlign=top;spacingLeft=4;spacingRight=4;whiteSpace=wrap;overflow=hidden;rotatable=0;points=[[0,0.5],[1,0.5]];portConstraint=eastwest;" vertex="1" parent="8m_SzLdECYq5h24U5q7m-71">
          <mxGeometry y="128" width="280" height="34" as="geometry" />
        </mxCell>
        <mxCell id="8m_SzLdECYq5h24U5q7m-80" value="" style="endArrow=block;dashed=1;endFill=0;endSize=12;html=1;rounded=0;" edge="1" parent="1" source="8m_SzLdECYq5h24U5q7m-62" target="8m_SzLdECYq5h24U5q7m-71">
          <mxGeometry width="160" relative="1" as="geometry">
            <mxPoint x="1700" y="-732" as="sourcePoint" />
            <mxPoint x="1760" y="-748" as="targetPoint" />
            <Array as="points" />
          </mxGeometry>
        </mxCell>
        <mxCell id="8m_SzLdECYq5h24U5q7m-83" value="IUIErrorNotifier&lt;br&gt;&amp;lt;&amp;lt;Interface&amp;gt;&amp;gt;" style="swimlane;html=1;fontStyle=1;align=center;verticalAlign=top;childLayout=stackLayout;horizontal=1;startSize=42;horizontalStack=0;resizeParent=1;resizeLast=0;collapsible=1;marginBottom=0;swimlaneFillColor=#ffffff;rounded=0;shadow=0;comic=0;labelBackgroundColor=none;strokeWidth=1;fillColor=none;fontFamily=Verdana;fontSize=12" vertex="1" parent="1">
          <mxGeometry x="1410" y="-1230" width="190" height="148" as="geometry" />
        </mxCell>
        <mxCell id="8m_SzLdECYq5h24U5q7m-84" value="" style="line;html=1;strokeWidth=1;fillColor=none;align=left;verticalAlign=middle;spacingTop=-1;spacingLeft=3;spacingRight=3;rotatable=0;labelPosition=right;points=[];portConstraint=eastwest;" vertex="1" parent="8m_SzLdECYq5h24U5q7m-83">
          <mxGeometry y="42" width="190" height="4" as="geometry" />
        </mxCell>
        <mxCell id="8m_SzLdECYq5h24U5q7m-85" value="+ &amp;nbsp;ShowError(string) : void" style="text;html=1;strokeColor=none;fillColor=none;align=left;verticalAlign=top;spacingLeft=4;spacingRight=4;whiteSpace=wrap;overflow=hidden;rotatable=0;points=[[0,0.5],[1,0.5]];portConstraint=eastwest;" vertex="1" parent="8m_SzLdECYq5h24U5q7m-83">
          <mxGeometry y="46" width="190" height="34" as="geometry" />
        </mxCell>
        <mxCell id="8m_SzLdECYq5h24U5q7m-86" value="+ &amp;nbsp;ShowSuccess(string) : void" style="text;html=1;strokeColor=none;fillColor=none;align=left;verticalAlign=top;spacingLeft=4;spacingRight=4;whiteSpace=wrap;overflow=hidden;rotatable=0;points=[[0,0.5],[1,0.5]];portConstraint=eastwest;" vertex="1" parent="8m_SzLdECYq5h24U5q7m-83">
          <mxGeometry y="80" width="190" height="34" as="geometry" />
        </mxCell>
        <mxCell id="8m_SzLdECYq5h24U5q7m-87" value="+ &amp;nbsp;ShowWarning(string) : void" style="text;html=1;strokeColor=none;fillColor=none;align=left;verticalAlign=top;spacingLeft=4;spacingRight=4;whiteSpace=wrap;overflow=hidden;rotatable=0;points=[[0,0.5],[1,0.5]];portConstraint=eastwest;" vertex="1" parent="8m_SzLdECYq5h24U5q7m-83">
          <mxGeometry y="114" width="190" height="34" as="geometry" />
        </mxCell>
        <mxCell id="8m_SzLdECYq5h24U5q7m-90" value="INavigationService&lt;br&gt;&amp;lt;&amp;lt;Interface&amp;gt;&amp;gt;" style="swimlane;html=1;fontStyle=1;align=center;verticalAlign=top;childLayout=stackLayout;horizontal=1;startSize=42;horizontalStack=0;resizeParent=1;resizeLast=0;collapsible=1;marginBottom=0;swimlaneFillColor=#ffffff;rounded=0;shadow=0;comic=0;labelBackgroundColor=none;strokeWidth=1;fillColor=none;fontFamily=Verdana;fontSize=12" vertex="1" parent="1">
          <mxGeometry x="1570" y="-950" width="290" height="250" as="geometry" />
        </mxCell>
        <mxCell id="8m_SzLdECYq5h24U5q7m-91" value="" style="line;html=1;strokeWidth=1;fillColor=none;align=left;verticalAlign=middle;spacingTop=-1;spacingLeft=3;spacingRight=3;rotatable=0;labelPosition=right;points=[];portConstraint=eastwest;" vertex="1" parent="8m_SzLdECYq5h24U5q7m-90">
          <mxGeometry y="42" width="290" height="4" as="geometry" />
        </mxCell>
        <mxCell id="8m_SzLdECYq5h24U5q7m-92" value="+ NavigateToMenu() : void" style="text;html=1;strokeColor=none;fillColor=none;align=left;verticalAlign=top;spacingLeft=4;spacingRight=4;whiteSpace=wrap;overflow=hidden;rotatable=0;points=[[0,0.5],[1,0.5]];portConstraint=eastwest;" vertex="1" parent="8m_SzLdECYq5h24U5q7m-90">
          <mxGeometry y="46" width="290" height="34" as="geometry" />
        </mxCell>
        <mxCell id="8m_SzLdECYq5h24U5q7m-93" value="+ NavigateToSettings() : void" style="text;html=1;strokeColor=none;fillColor=none;align=left;verticalAlign=top;spacingLeft=4;spacingRight=4;whiteSpace=wrap;overflow=hidden;rotatable=0;points=[[0,0.5],[1,0.5]];portConstraint=eastwest;" vertex="1" parent="8m_SzLdECYq5h24U5q7m-90">
          <mxGeometry y="80" width="290" height="34" as="geometry" />
        </mxCell>
        <mxCell id="8m_SzLdECYq5h24U5q7m-94" value="+ NavigateToBackUp(BackUpViewModel) : void" style="text;html=1;strokeColor=none;fillColor=none;align=left;verticalAlign=top;spacingLeft=4;spacingRight=4;whiteSpace=wrap;overflow=hidden;rotatable=0;points=[[0,0.5],[1,0.5]];portConstraint=eastwest;" vertex="1" parent="8m_SzLdECYq5h24U5q7m-90">
          <mxGeometry y="114" width="290" height="34" as="geometry" />
        </mxCell>
        <mxCell id="8m_SzLdECYq5h24U5q7m-95" value="+ CloseMenu() : void" style="text;html=1;strokeColor=none;fillColor=none;align=left;verticalAlign=top;spacingLeft=4;spacingRight=4;whiteSpace=wrap;overflow=hidden;rotatable=0;points=[[0,0.5],[1,0.5]];portConstraint=eastwest;" vertex="1" parent="8m_SzLdECYq5h24U5q7m-90">
          <mxGeometry y="148" width="290" height="34" as="geometry" />
        </mxCell>
        <mxCell id="8m_SzLdECYq5h24U5q7m-96" value="+ CloseSettings() : void" style="text;html=1;strokeColor=none;fillColor=none;align=left;verticalAlign=top;spacingLeft=4;spacingRight=4;whiteSpace=wrap;overflow=hidden;rotatable=0;points=[[0,0.5],[1,0.5]];portConstraint=eastwest;" vertex="1" parent="8m_SzLdECYq5h24U5q7m-90">
          <mxGeometry y="182" width="290" height="34" as="geometry" />
        </mxCell>
        <mxCell id="8m_SzLdECYq5h24U5q7m-97" value="+ CloseBackUp() : void" style="text;html=1;strokeColor=none;fillColor=none;align=left;verticalAlign=top;spacingLeft=4;spacingRight=4;whiteSpace=wrap;overflow=hidden;rotatable=0;points=[[0,0.5],[1,0.5]];portConstraint=eastwest;" vertex="1" parent="8m_SzLdECYq5h24U5q7m-90">
          <mxGeometry y="216" width="290" height="34" as="geometry" />
        </mxCell>
        <mxCell id="8m_SzLdECYq5h24U5q7m-98" value="" style="endArrow=block;dashed=1;endFill=0;endSize=12;html=1;rounded=0;" edge="1" parent="1" source="8m_SzLdECYq5h24U5q7m-30" target="8m_SzLdECYq5h24U5q7m-90">
          <mxGeometry width="160" relative="1" as="geometry">
            <mxPoint x="1396" y="-615" as="sourcePoint" />
            <mxPoint x="1398" y="-672" as="targetPoint" />
            <Array as="points">
              <mxPoint x="2040" y="-1505" />
              <mxPoint x="2030" y="-825" />
            </Array>
          </mxGeometry>
        </mxCell>
        <mxCell id="8m_SzLdECYq5h24U5q7m-99" value="IFileDialogService&lt;br&gt;&amp;lt;&amp;lt;Interface&amp;gt;&amp;gt;" style="swimlane;html=1;fontStyle=1;align=center;verticalAlign=top;childLayout=stackLayout;horizontal=1;startSize=42;horizontalStack=0;resizeParent=1;resizeLast=0;collapsible=1;marginBottom=0;swimlaneFillColor=#ffffff;rounded=0;shadow=0;comic=0;labelBackgroundColor=none;strokeWidth=1;fillColor=none;fontFamily=Verdana;fontSize=12" vertex="1" parent="1">
          <mxGeometry x="1700" y="-1200" width="190" height="80" as="geometry" />
        </mxCell>
        <mxCell id="8m_SzLdECYq5h24U5q7m-100" value="" style="line;html=1;strokeWidth=1;fillColor=none;align=left;verticalAlign=middle;spacingTop=-1;spacingLeft=3;spacingRight=3;rotatable=0;labelPosition=right;points=[];portConstraint=eastwest;" vertex="1" parent="8m_SzLdECYq5h24U5q7m-99">
          <mxGeometry y="42" width="190" height="4" as="geometry" />
        </mxCell>
        <mxCell id="8m_SzLdECYq5h24U5q7m-101" value="+ SelectFolder() : void" style="text;html=1;strokeColor=none;fillColor=none;align=left;verticalAlign=top;spacingLeft=4;spacingRight=4;whiteSpace=wrap;overflow=hidden;rotatable=0;points=[[0,0.5],[1,0.5]];portConstraint=eastwest;" vertex="1" parent="8m_SzLdECYq5h24U5q7m-99">
          <mxGeometry y="46" width="190" height="34" as="geometry" />
        </mxCell>
        <mxCell id="8m_SzLdECYq5h24U5q7m-102" value="" style="endArrow=block;dashed=1;endFill=0;endSize=12;html=1;rounded=0;" edge="1" parent="1" source="8m_SzLdECYq5h24U5q7m-25" target="8m_SzLdECYq5h24U5q7m-99">
          <mxGeometry width="160" relative="1" as="geometry">
            <mxPoint x="1248" y="-1280" as="sourcePoint" />
            <mxPoint x="1248" y="-1335" as="targetPoint" />
            <Array as="points" />
          </mxGeometry>
        </mxCell>
        <mxCell id="8m_SzLdECYq5h24U5q7m-103" value="BackUpViewModel" style="swimlane;html=1;fontStyle=1;align=center;verticalAlign=top;childLayout=stackLayout;horizontal=1;startSize=26;horizontalStack=0;resizeParent=1;resizeLast=0;collapsible=1;marginBottom=0;swimlaneFillColor=#ffffff;rounded=0;shadow=0;comic=0;labelBackgroundColor=none;strokeWidth=1;fillColor=none;fontFamily=Verdana;fontSize=12" vertex="1" parent="1">
          <mxGeometry x="460" y="-900" width="320" height="750" as="geometry" />
        </mxCell>
        <mxCell id="8m_SzLdECYq5h24U5q7m-120" value="-&amp;nbsp;readonly _notifier: IUIErrorNotifier" style="text;html=1;strokeColor=none;fillColor=none;align=left;verticalAlign=top;spacingLeft=4;spacingRight=4;whiteSpace=wrap;overflow=hidden;rotatable=0;points=[[0,0.5],[1,0.5]];portConstraint=eastwest;" vertex="1" parent="8m_SzLdECYq5h24U5q7m-103">
          <mxGeometry y="26" width="320" height="34" as="geometry" />
        </mxCell>
        <mxCell id="8m_SzLdECYq5h24U5q7m-121" value="-&amp;nbsp;readonly _naviagtionService : INavigationService" style="text;html=1;strokeColor=none;fillColor=none;align=left;verticalAlign=top;spacingLeft=4;spacingRight=4;whiteSpace=wrap;overflow=hidden;rotatable=0;points=[[0,0.5],[1,0.5]];portConstraint=eastwest;" vertex="1" parent="8m_SzLdECYq5h24U5q7m-103">
          <mxGeometry y="60" width="320" height="34" as="geometry" />
        </mxCell>
        <mxCell id="8m_SzLdECYq5h24U5q7m-105" value="+ SettingsCommand { get; } : ICommand&amp;nbsp;" style="text;html=1;strokeColor=none;fillColor=none;align=left;verticalAlign=top;spacingLeft=4;spacingRight=4;whiteSpace=wrap;overflow=hidden;rotatable=0;points=[[0,0.5],[1,0.5]];portConstraint=eastwest;" vertex="1" parent="8m_SzLdECYq5h24U5q7m-103">
          <mxGeometry y="94" width="320" height="34" as="geometry" />
        </mxCell>
        <mxCell id="8m_SzLdECYq5h24U5q7m-116" value="+ ShowLogsCommand&amp;nbsp;{ get; } : ICommand&amp;nbsp;" style="text;html=1;strokeColor=none;fillColor=none;align=left;verticalAlign=top;spacingLeft=4;spacingRight=4;whiteSpace=wrap;overflow=hidden;rotatable=0;points=[[0,0.5],[1,0.5]];portConstraint=eastwest;" vertex="1" parent="8m_SzLdECYq5h24U5q7m-103">
          <mxGeometry y="128" width="320" height="34" as="geometry" />
        </mxCell>
        <mxCell id="8m_SzLdECYq5h24U5q7m-117" value="+ CreateJobCommand&amp;nbsp;{ get; } : ICommand&amp;nbsp;" style="text;html=1;strokeColor=none;fillColor=none;align=left;verticalAlign=top;spacingLeft=4;spacingRight=4;whiteSpace=wrap;overflow=hidden;rotatable=0;points=[[0,0.5],[1,0.5]];portConstraint=eastwest;" vertex="1" parent="8m_SzLdECYq5h24U5q7m-103">
          <mxGeometry y="162" width="320" height="34" as="geometry" />
        </mxCell>
        <mxCell id="8m_SzLdECYq5h24U5q7m-115" value="+ ModifyJobCommand&amp;nbsp;{ get; } : ICommand&amp;nbsp;" style="text;html=1;strokeColor=none;fillColor=none;align=left;verticalAlign=top;spacingLeft=4;spacingRight=4;whiteSpace=wrap;overflow=hidden;rotatable=0;points=[[0,0.5],[1,0.5]];portConstraint=eastwest;" vertex="1" parent="8m_SzLdECYq5h24U5q7m-103">
          <mxGeometry y="196" width="320" height="34" as="geometry" />
        </mxCell>
        <mxCell id="8m_SzLdECYq5h24U5q7m-118" value="+ DeleteJobCommand&amp;nbsp;{ get; } : ICommand&amp;nbsp;" style="text;html=1;strokeColor=none;fillColor=none;align=left;verticalAlign=top;spacingLeft=4;spacingRight=4;whiteSpace=wrap;overflow=hidden;rotatable=0;points=[[0,0.5],[1,0.5]];portConstraint=eastwest;" vertex="1" parent="8m_SzLdECYq5h24U5q7m-103">
          <mxGeometry y="230" width="320" height="34" as="geometry" />
        </mxCell>
        <mxCell id="8m_SzLdECYq5h24U5q7m-119" value="+ ExecuteSelectedJobsCommand&amp;nbsp;{ get; } : ICommand&amp;nbsp;" style="text;html=1;strokeColor=none;fillColor=none;align=left;verticalAlign=top;spacingLeft=4;spacingRight=4;whiteSpace=wrap;overflow=hidden;rotatable=0;points=[[0,0.5],[1,0.5]];portConstraint=eastwest;" vertex="1" parent="8m_SzLdECYq5h24U5q7m-103">
          <mxGeometry y="264" width="320" height="34" as="geometry" />
        </mxCell>
        <mxCell id="8m_SzLdECYq5h24U5q7m-122" value="+ JobList :&amp;nbsp;ObservableCollection&amp;lt;BackUpJob&amp;gt;" style="text;html=1;strokeColor=none;fillColor=none;align=left;verticalAlign=top;spacingLeft=4;spacingRight=4;whiteSpace=wrap;overflow=hidden;rotatable=0;points=[[0,0.5],[1,0.5]];portConstraint=eastwest;" vertex="1" parent="8m_SzLdECYq5h24U5q7m-103">
          <mxGeometry y="298" width="320" height="34" as="geometry" />
        </mxCell>
        <mxCell id="8m_SzLdECYq5h24U5q7m-123" value="- areAllSelected: bool" style="text;html=1;strokeColor=none;fillColor=none;align=left;verticalAlign=top;spacingLeft=4;spacingRight=4;whiteSpace=wrap;overflow=hidden;rotatable=0;points=[[0,0.5],[1,0.5]];portConstraint=eastwest;" vertex="1" parent="8m_SzLdECYq5h24U5q7m-103">
          <mxGeometry y="332" width="320" height="34" as="geometry" />
        </mxCell>
        <mxCell id="8m_SzLdECYq5h24U5q7m-124" value="+ AreAllSelected: bool" style="text;html=1;strokeColor=none;fillColor=none;align=left;verticalAlign=top;spacingLeft=4;spacingRight=4;whiteSpace=wrap;overflow=hidden;rotatable=0;points=[[0,0.5],[1,0.5]];portConstraint=eastwest;" vertex="1" parent="8m_SzLdECYq5h24U5q7m-103">
          <mxGeometry y="366" width="320" height="34" as="geometry" />
        </mxCell>
        <mxCell id="8m_SzLdECYq5h24U5q7m-125" value="+ AvailableLanguages : IReadOnlyList&amp;lt;string&amp;gt;" style="text;html=1;strokeColor=none;fillColor=none;align=left;verticalAlign=top;spacingLeft=4;spacingRight=4;whiteSpace=wrap;overflow=hidden;rotatable=0;points=[[0,0.5],[1,0.5]];portConstraint=eastwest;" vertex="1" parent="8m_SzLdECYq5h24U5q7m-103">
          <mxGeometry y="400" width="320" height="34" as="geometry" />
        </mxCell>
        <mxCell id="8m_SzLdECYq5h24U5q7m-126" value="- _currentLanguage: string" style="text;html=1;strokeColor=none;fillColor=none;align=left;verticalAlign=top;spacingLeft=4;spacingRight=4;whiteSpace=wrap;overflow=hidden;rotatable=0;points=[[0,0.5],[1,0.5]];portConstraint=eastwest;" vertex="1" parent="8m_SzLdECYq5h24U5q7m-103">
          <mxGeometry y="434" width="320" height="34" as="geometry" />
        </mxCell>
        <mxCell id="8m_SzLdECYq5h24U5q7m-104" value="" style="line;html=1;strokeWidth=1;fillColor=none;align=left;verticalAlign=middle;spacingTop=-1;spacingLeft=3;spacingRight=3;rotatable=0;labelPosition=right;points=[];portConstraint=eastwest;" vertex="1" parent="8m_SzLdECYq5h24U5q7m-103">
          <mxGeometry y="468" width="320" height="10" as="geometry" />
        </mxCell>
        <mxCell id="8m_SzLdECYq5h24U5q7m-106" value="+ ExecuteSelectedJobs() : void&amp;nbsp;" style="text;html=1;strokeColor=none;fillColor=none;align=left;verticalAlign=top;spacingLeft=4;spacingRight=4;whiteSpace=wrap;overflow=hidden;rotatable=0;points=[[0,0.5],[1,0.5]];portConstraint=eastwest;" vertex="1" parent="8m_SzLdECYq5h24U5q7m-103">
          <mxGeometry y="478" width="320" height="34" as="geometry" />
        </mxCell>
        <mxCell id="8m_SzLdECYq5h24U5q7m-128" value="+ Settings() : void&amp;nbsp;" style="text;html=1;strokeColor=none;fillColor=none;align=left;verticalAlign=top;spacingLeft=4;spacingRight=4;whiteSpace=wrap;overflow=hidden;rotatable=0;points=[[0,0.5],[1,0.5]];portConstraint=eastwest;" vertex="1" parent="8m_SzLdECYq5h24U5q7m-103">
          <mxGeometry y="512" width="320" height="34" as="geometry" />
        </mxCell>
        <mxCell id="8m_SzLdECYq5h24U5q7m-129" value="+ ShowLogs() : void&amp;nbsp;" style="text;html=1;strokeColor=none;fillColor=none;align=left;verticalAlign=top;spacingLeft=4;spacingRight=4;whiteSpace=wrap;overflow=hidden;rotatable=0;points=[[0,0.5],[1,0.5]];portConstraint=eastwest;" vertex="1" parent="8m_SzLdECYq5h24U5q7m-103">
          <mxGeometry y="546" width="320" height="34" as="geometry" />
        </mxCell>
        <mxCell id="8m_SzLdECYq5h24U5q7m-130" value="+ CreateJob() : void&amp;nbsp;" style="text;html=1;strokeColor=none;fillColor=none;align=left;verticalAlign=top;spacingLeft=4;spacingRight=4;whiteSpace=wrap;overflow=hidden;rotatable=0;points=[[0,0.5],[1,0.5]];portConstraint=eastwest;" vertex="1" parent="8m_SzLdECYq5h24U5q7m-103">
          <mxGeometry y="580" width="320" height="34" as="geometry" />
        </mxCell>
        <mxCell id="8m_SzLdECYq5h24U5q7m-132" value="+ CreateJob() : void&amp;nbsp;" style="text;html=1;strokeColor=none;fillColor=none;align=left;verticalAlign=top;spacingLeft=4;spacingRight=4;whiteSpace=wrap;overflow=hidden;rotatable=0;points=[[0,0.5],[1,0.5]];portConstraint=eastwest;" vertex="1" parent="8m_SzLdECYq5h24U5q7m-103">
          <mxGeometry y="614" width="320" height="34" as="geometry" />
        </mxCell>
        <mxCell id="8m_SzLdECYq5h24U5q7m-127" value="+ OnPropertyChanged(string) : void&amp;nbsp;" style="text;html=1;strokeColor=none;fillColor=none;align=left;verticalAlign=top;spacingLeft=4;spacingRight=4;whiteSpace=wrap;overflow=hidden;rotatable=0;points=[[0,0.5],[1,0.5]];portConstraint=eastwest;" vertex="1" parent="8m_SzLdECYq5h24U5q7m-103">
          <mxGeometry y="648" width="320" height="34" as="geometry" />
        </mxCell>
        <mxCell id="8m_SzLdECYq5h24U5q7m-131" value="+ DeleteJob(BackUpJob) : void&amp;nbsp;" style="text;html=1;strokeColor=none;fillColor=none;align=left;verticalAlign=top;spacingLeft=4;spacingRight=4;whiteSpace=wrap;overflow=hidden;rotatable=0;points=[[0,0.5],[1,0.5]];portConstraint=eastwest;" vertex="1" parent="8m_SzLdECYq5h24U5q7m-103">
          <mxGeometry y="682" width="320" height="34" as="geometry" />
        </mxCell>
        <mxCell id="8m_SzLdECYq5h24U5q7m-133" value="+ AlterJob(BackUpJob) : void&amp;nbsp;" style="text;html=1;strokeColor=none;fillColor=none;align=left;verticalAlign=top;spacingLeft=4;spacingRight=4;whiteSpace=wrap;overflow=hidden;rotatable=0;points=[[0,0.5],[1,0.5]];portConstraint=eastwest;" vertex="1" parent="8m_SzLdECYq5h24U5q7m-103">
          <mxGeometry y="716" width="320" height="34" as="geometry" />
        </mxCell>
        <mxCell id="8m_SzLdECYq5h24U5q7m-108" value="ViewModelBase" style="swimlane;html=1;fontStyle=1;align=center;verticalAlign=top;childLayout=stackLayout;horizontal=1;startSize=26;horizontalStack=0;resizeParent=1;resizeLast=0;collapsible=1;marginBottom=0;swimlaneFillColor=#ffffff;rounded=0;shadow=0;comic=0;labelBackgroundColor=none;strokeWidth=1;fillColor=none;fontFamily=Verdana;fontSize=12" vertex="1" parent="1">
          <mxGeometry x="25" y="-1220" width="350" height="206" as="geometry" />
        </mxCell>
        <mxCell id="8m_SzLdECYq5h24U5q7m-110" value="# readonly _localizer : ILocalizer&amp;nbsp;" style="text;html=1;strokeColor=none;fillColor=none;align=left;verticalAlign=top;spacingLeft=4;spacingRight=4;whiteSpace=wrap;overflow=hidden;rotatable=0;points=[[0,0.5],[1,0.5]];portConstraint=eastwest;" vertex="1" parent="8m_SzLdECYq5h24U5q7m-108">
          <mxGeometry y="26" width="350" height="34" as="geometry" />
        </mxCell>
        <mxCell id="8m_SzLdECYq5h24U5q7m-113" value="+ PropertyChanged : event PropertyChangedEventHandler" style="text;html=1;strokeColor=none;fillColor=none;align=left;verticalAlign=top;spacingLeft=4;spacingRight=4;whiteSpace=wrap;overflow=hidden;rotatable=0;points=[[0,0.5],[1,0.5]];portConstraint=eastwest;" vertex="1" parent="8m_SzLdECYq5h24U5q7m-108">
          <mxGeometry y="60" width="350" height="34" as="geometry" />
        </mxCell>
        <mxCell id="8m_SzLdECYq5h24U5q7m-109" value="" style="line;html=1;strokeWidth=1;fillColor=none;align=left;verticalAlign=middle;spacingTop=-1;spacingLeft=3;spacingRight=3;rotatable=0;labelPosition=right;points=[];portConstraint=eastwest;" vertex="1" parent="8m_SzLdECYq5h24U5q7m-108">
          <mxGeometry y="94" width="350" height="10" as="geometry" />
        </mxCell>
        <mxCell id="8m_SzLdECYq5h24U5q7m-111" value="# OnPropertyChanged([CallerMemberName] string) : void&amp;nbsp;" style="text;html=1;strokeColor=none;fillColor=none;align=left;verticalAlign=top;spacingLeft=4;spacingRight=4;whiteSpace=wrap;overflow=hidden;rotatable=0;points=[[0,0.5],[1,0.5]];portConstraint=eastwest;" vertex="1" parent="8m_SzLdECYq5h24U5q7m-108">
          <mxGeometry y="104" width="350" height="34" as="geometry" />
        </mxCell>
        <mxCell id="8m_SzLdECYq5h24U5q7m-114" value="# SetProperty&amp;lt;T&amp;gt;(ref T, T, [CallerMemberName] string) : bool&amp;nbsp;" style="text;html=1;strokeColor=none;fillColor=none;align=left;verticalAlign=top;spacingLeft=4;spacingRight=4;whiteSpace=wrap;overflow=hidden;rotatable=0;points=[[0,0.5],[1,0.5]];portConstraint=eastwest;" vertex="1" parent="8m_SzLdECYq5h24U5q7m-108">
          <mxGeometry y="138" width="350" height="34" as="geometry" />
        </mxCell>
        <mxCell id="8m_SzLdECYq5h24U5q7m-112" value="+&amp;nbsp; this[string key] : string&amp;nbsp;" style="text;html=1;strokeColor=none;fillColor=none;align=left;verticalAlign=top;spacingLeft=4;spacingRight=4;whiteSpace=wrap;overflow=hidden;rotatable=0;points=[[0,0.5],[1,0.5]];portConstraint=eastwest;" vertex="1" parent="8m_SzLdECYq5h24U5q7m-108">
          <mxGeometry y="172" width="350" height="34" as="geometry" />
        </mxCell>
        <mxCell id="8m_SzLdECYq5h24U5q7m-134" value="MainViewModel" style="swimlane;html=1;fontStyle=1;align=center;verticalAlign=top;childLayout=stackLayout;horizontal=1;startSize=26;horizontalStack=0;resizeParent=1;resizeLast=0;collapsible=1;marginBottom=0;swimlaneFillColor=#ffffff;rounded=0;shadow=0;comic=0;labelBackgroundColor=none;strokeWidth=1;fillColor=none;fontFamily=Verdana;fontSize=12" vertex="1" parent="1">
          <mxGeometry x="-80" y="-920" width="320" height="920" as="geometry" />
        </mxCell>
        <mxCell id="8m_SzLdECYq5h24U5q7m-136" value="-&amp;nbsp;readonly _naviagtionService : INavigationService" style="text;html=1;strokeColor=none;fillColor=none;align=left;verticalAlign=top;spacingLeft=4;spacingRight=4;whiteSpace=wrap;overflow=hidden;rotatable=0;points=[[0,0.5],[1,0.5]];portConstraint=eastwest;" vertex="1" parent="8m_SzLdECYq5h24U5q7m-134">
          <mxGeometry y="26" width="320" height="34" as="geometry" />
        </mxCell>
        <mxCell id="8m_SzLdECYq5h24U5q7m-137" value="+ ChangeSettingsCommand{ get; } : ICommand&amp;nbsp;" style="text;html=1;strokeColor=none;fillColor=none;align=left;verticalAlign=top;spacingLeft=4;spacingRight=4;whiteSpace=wrap;overflow=hidden;rotatable=0;points=[[0,0.5],[1,0.5]];portConstraint=eastwest;" vertex="1" parent="8m_SzLdECYq5h24U5q7m-134">
          <mxGeometry y="60" width="320" height="34" as="geometry" />
        </mxCell>
        <mxCell id="8m_SzLdECYq5h24U5q7m-138" value="+ CancelCommand{ get; } : ICommand&amp;nbsp;" style="text;html=1;strokeColor=none;fillColor=none;align=left;verticalAlign=top;spacingLeft=4;spacingRight=4;whiteSpace=wrap;overflow=hidden;rotatable=0;points=[[0,0.5],[1,0.5]];portConstraint=eastwest;" vertex="1" parent="8m_SzLdECYq5h24U5q7m-134">
          <mxGeometry y="94" width="320" height="34" as="geometry" />
        </mxCell>
        <mxCell id="8m_SzLdECYq5h24U5q7m-139" value="+ ExitCommand { get; } : ICommand&amp;nbsp;" style="text;html=1;strokeColor=none;fillColor=none;align=left;verticalAlign=top;spacingLeft=4;spacingRight=4;whiteSpace=wrap;overflow=hidden;rotatable=0;points=[[0,0.5],[1,0.5]];portConstraint=eastwest;" vertex="1" parent="8m_SzLdECYq5h24U5q7m-134">
          <mxGeometry y="128" width="320" height="34" as="geometry" />
        </mxCell>
        <mxCell id="8m_SzLdECYq5h24U5q7m-140" value="+ EditCommand{ get; } : ICommand&amp;nbsp;" style="text;html=1;strokeColor=none;fillColor=none;align=left;verticalAlign=top;spacingLeft=4;spacingRight=4;whiteSpace=wrap;overflow=hidden;rotatable=0;points=[[0,0.5],[1,0.5]];portConstraint=eastwest;" vertex="1" parent="8m_SzLdECYq5h24U5q7m-134">
          <mxGeometry y="162" width="320" height="34" as="geometry" />
        </mxCell>
        <mxCell id="8m_SzLdECYq5h24U5q7m-141" value="+ CloseCommand{ get; } : ICommand&amp;nbsp;" style="text;html=1;strokeColor=none;fillColor=none;align=left;verticalAlign=top;spacingLeft=4;spacingRight=4;whiteSpace=wrap;overflow=hidden;rotatable=0;points=[[0,0.5],[1,0.5]];portConstraint=eastwest;" vertex="1" parent="8m_SzLdECYq5h24U5q7m-134">
          <mxGeometry y="196" width="320" height="34" as="geometry" />
        </mxCell>
        <mxCell id="8m_SzLdECYq5h24U5q7m-142" value="&amp;nbsp;+ event RequestClose : Action" style="text;html=1;strokeColor=none;fillColor=none;align=left;verticalAlign=top;spacingLeft=4;spacingRight=4;whiteSpace=wrap;overflow=hidden;rotatable=0;points=[[0,0.5],[1,0.5]];portConstraint=eastwest;" vertex="1" parent="8m_SzLdECYq5h24U5q7m-134">
          <mxGeometry y="230" width="320" height="34" as="geometry" />
        </mxCell>
        <mxCell id="8m_SzLdECYq5h24U5q7m-146" value="-&amp;nbsp;_isEditing : bool" style="text;html=1;strokeColor=none;fillColor=none;align=left;verticalAlign=top;spacingLeft=4;spacingRight=4;whiteSpace=wrap;overflow=hidden;rotatable=0;points=[[0,0.5],[1,0.5]];portConstraint=eastwest;" vertex="1" parent="8m_SzLdECYq5h24U5q7m-134">
          <mxGeometry y="264" width="320" height="34" as="geometry" />
        </mxCell>
        <mxCell id="8m_SzLdECYq5h24U5q7m-162" value="+&amp;nbsp;IsEditing : bool" style="text;html=1;strokeColor=none;fillColor=none;align=left;verticalAlign=top;spacingLeft=4;spacingRight=4;whiteSpace=wrap;overflow=hidden;rotatable=0;points=[[0,0.5],[1,0.5]];portConstraint=eastwest;" vertex="1" parent="8m_SzLdECYq5h24U5q7m-134">
          <mxGeometry y="298" width="320" height="34" as="geometry" />
        </mxCell>
        <mxCell id="8m_SzLdECYq5h24U5q7m-161" value="-&amp;nbsp;_editedExtensions : string" style="text;html=1;strokeColor=none;fillColor=none;align=left;verticalAlign=top;spacingLeft=4;spacingRight=4;whiteSpace=wrap;overflow=hidden;rotatable=0;points=[[0,0.5],[1,0.5]];portConstraint=eastwest;" vertex="1" parent="8m_SzLdECYq5h24U5q7m-134">
          <mxGeometry y="332" width="320" height="34" as="geometry" />
        </mxCell>
        <mxCell id="8m_SzLdECYq5h24U5q7m-147" value="+&amp;nbsp;EditedExtensions : string" style="text;html=1;strokeColor=none;fillColor=none;align=left;verticalAlign=top;spacingLeft=4;spacingRight=4;whiteSpace=wrap;overflow=hidden;rotatable=0;points=[[0,0.5],[1,0.5]];portConstraint=eastwest;" vertex="1" parent="8m_SzLdECYq5h24U5q7m-134">
          <mxGeometry y="366" width="320" height="34" as="geometry" />
        </mxCell>
        <mxCell id="8m_SzLdECYq5h24U5q7m-163" value="-&amp;nbsp;_editedSoftwarePackages : string" style="text;html=1;strokeColor=none;fillColor=none;align=left;verticalAlign=top;spacingLeft=4;spacingRight=4;whiteSpace=wrap;overflow=hidden;rotatable=0;points=[[0,0.5],[1,0.5]];portConstraint=eastwest;" vertex="1" parent="8m_SzLdECYq5h24U5q7m-134">
          <mxGeometry y="400" width="320" height="34" as="geometry" />
        </mxCell>
        <mxCell id="8m_SzLdECYq5h24U5q7m-164" value="+&amp;nbsp;EditedSoftwarePackages : string" style="text;html=1;strokeColor=none;fillColor=none;align=left;verticalAlign=top;spacingLeft=4;spacingRight=4;whiteSpace=wrap;overflow=hidden;rotatable=0;points=[[0,0.5],[1,0.5]];portConstraint=eastwest;" vertex="1" parent="8m_SzLdECYq5h24U5q7m-134">
          <mxGeometry y="434" width="320" height="34" as="geometry" />
        </mxCell>
        <mxCell id="8m_SzLdECYq5h24U5q7m-165" value="-&amp;nbsp;_editedKey : string" style="text;html=1;strokeColor=none;fillColor=none;align=left;verticalAlign=top;spacingLeft=4;spacingRight=4;whiteSpace=wrap;overflow=hidden;rotatable=0;points=[[0,0.5],[1,0.5]];portConstraint=eastwest;" vertex="1" parent="8m_SzLdECYq5h24U5q7m-134">
          <mxGeometry y="468" width="320" height="34" as="geometry" />
        </mxCell>
        <mxCell id="8m_SzLdECYq5h24U5q7m-166" value="+&amp;nbsp;EditedKey : string" style="text;html=1;strokeColor=none;fillColor=none;align=left;verticalAlign=top;spacingLeft=4;spacingRight=4;whiteSpace=wrap;overflow=hidden;rotatable=0;points=[[0,0.5],[1,0.5]];portConstraint=eastwest;" vertex="1" parent="8m_SzLdECYq5h24U5q7m-134">
          <mxGeometry y="502" width="320" height="34" as="geometry" />
        </mxCell>
        <mxCell id="8m_SzLdECYq5h24U5q7m-168" value="- _currentLanguage: string" style="text;html=1;strokeColor=none;fillColor=none;align=left;verticalAlign=top;spacingLeft=4;spacingRight=4;whiteSpace=wrap;overflow=hidden;rotatable=0;points=[[0,0.5],[1,0.5]];portConstraint=eastwest;" vertex="1" parent="8m_SzLdECYq5h24U5q7m-134">
          <mxGeometry y="536" width="320" height="34" as="geometry" />
        </mxCell>
        <mxCell id="8m_SzLdECYq5h24U5q7m-169" value="- CurrentLanguage: string" style="text;html=1;strokeColor=none;fillColor=none;align=left;verticalAlign=top;spacingLeft=4;spacingRight=4;whiteSpace=wrap;overflow=hidden;rotatable=0;points=[[0,0.5],[1,0.5]];portConstraint=eastwest;" vertex="1" parent="8m_SzLdECYq5h24U5q7m-134">
          <mxGeometry y="570" width="320" height="34" as="geometry" />
        </mxCell>
        <mxCell id="8m_SzLdECYq5h24U5q7m-167" value="+ readonly AvailableLanguages : IReadOnlyList&amp;lt;string&amp;gt;" style="text;html=1;strokeColor=none;fillColor=none;align=left;verticalAlign=top;spacingLeft=4;spacingRight=4;whiteSpace=wrap;overflow=hidden;rotatable=0;points=[[0,0.5],[1,0.5]];portConstraint=eastwest;" vertex="1" parent="8m_SzLdECYq5h24U5q7m-134">
          <mxGeometry y="604" width="320" height="34" as="geometry" />
        </mxCell>
        <mxCell id="8m_SzLdECYq5h24U5q7m-148" value="" style="line;html=1;strokeWidth=1;fillColor=none;align=left;verticalAlign=middle;spacingTop=-1;spacingLeft=3;spacingRight=3;rotatable=0;labelPosition=right;points=[];portConstraint=eastwest;" vertex="1" parent="8m_SzLdECYq5h24U5q7m-134">
          <mxGeometry y="638" width="320" height="10" as="geometry" />
        </mxCell>
        <mxCell id="8m_SzLdECYq5h24U5q7m-149" value="+ SettingsViewModel(INavigationService)" style="text;html=1;strokeColor=none;fillColor=none;align=left;verticalAlign=top;spacingLeft=4;spacingRight=4;whiteSpace=wrap;overflow=hidden;rotatable=0;points=[[0,0.5],[1,0.5]];portConstraint=eastwest;" vertex="1" parent="8m_SzLdECYq5h24U5q7m-134">
          <mxGeometry y="648" width="320" height="34" as="geometry" />
        </mxCell>
        <mxCell id="8m_SzLdECYq5h24U5q7m-150" value="+ Exit() : void&amp;nbsp;" style="text;html=1;strokeColor=none;fillColor=none;align=left;verticalAlign=top;spacingLeft=4;spacingRight=4;whiteSpace=wrap;overflow=hidden;rotatable=0;points=[[0,0.5],[1,0.5]];portConstraint=eastwest;" vertex="1" parent="8m_SzLdECYq5h24U5q7m-134">
          <mxGeometry y="682" width="320" height="34" as="geometry" />
        </mxCell>
        <mxCell id="8m_SzLdECYq5h24U5q7m-151" value="+ SaveAll() : void&amp;nbsp;" style="text;html=1;strokeColor=none;fillColor=none;align=left;verticalAlign=top;spacingLeft=4;spacingRight=4;whiteSpace=wrap;overflow=hidden;rotatable=0;points=[[0,0.5],[1,0.5]];portConstraint=eastwest;" vertex="1" parent="8m_SzLdECYq5h24U5q7m-134">
          <mxGeometry y="716" width="320" height="34" as="geometry" />
        </mxCell>
        <mxCell id="8m_SzLdECYq5h24U5q7m-152" value="+ CreateJob() : void&amp;nbsp;" style="text;html=1;strokeColor=none;fillColor=none;align=left;verticalAlign=top;spacingLeft=4;spacingRight=4;whiteSpace=wrap;overflow=hidden;rotatable=0;points=[[0,0.5],[1,0.5]];portConstraint=eastwest;" vertex="1" parent="8m_SzLdECYq5h24U5q7m-134">
          <mxGeometry y="750" width="320" height="34" as="geometry" />
        </mxCell>
        <mxCell id="8m_SzLdECYq5h24U5q7m-153" value="+ CreateJob() : void&amp;nbsp;" style="text;html=1;strokeColor=none;fillColor=none;align=left;verticalAlign=top;spacingLeft=4;spacingRight=4;whiteSpace=wrap;overflow=hidden;rotatable=0;points=[[0,0.5],[1,0.5]];portConstraint=eastwest;" vertex="1" parent="8m_SzLdECYq5h24U5q7m-134">
          <mxGeometry y="784" width="320" height="34" as="geometry" />
        </mxCell>
        <mxCell id="8m_SzLdECYq5h24U5q7m-154" value="+ AlterJob(BackUpJob) : void&amp;nbsp;" style="text;html=1;strokeColor=none;fillColor=none;align=left;verticalAlign=top;spacingLeft=4;spacingRight=4;whiteSpace=wrap;overflow=hidden;rotatable=0;points=[[0,0.5],[1,0.5]];portConstraint=eastwest;" vertex="1" parent="8m_SzLdECYq5h24U5q7m-134">
          <mxGeometry y="818" width="320" height="34" as="geometry" />
        </mxCell>
        <mxCell id="8m_SzLdECYq5h24U5q7m-155" value="+ DeleteJob(BackUpJob) : void&amp;nbsp;" style="text;html=1;strokeColor=none;fillColor=none;align=left;verticalAlign=top;spacingLeft=4;spacingRight=4;whiteSpace=wrap;overflow=hidden;rotatable=0;points=[[0,0.5],[1,0.5]];portConstraint=eastwest;" vertex="1" parent="8m_SzLdECYq5h24U5q7m-134">
          <mxGeometry y="852" width="320" height="34" as="geometry" />
        </mxCell>
        <mxCell id="8m_SzLdECYq5h24U5q7m-156" value="+ OnPropertyChanged(string) : void&amp;nbsp;" style="text;html=1;strokeColor=none;fillColor=none;align=left;verticalAlign=top;spacingLeft=4;spacingRight=4;whiteSpace=wrap;overflow=hidden;rotatable=0;points=[[0,0.5],[1,0.5]];portConstraint=eastwest;" vertex="1" parent="8m_SzLdECYq5h24U5q7m-134">
          <mxGeometry y="886" width="320" height="34" as="geometry" />
        </mxCell>
        <mxCell id="8m_SzLdECYq5h24U5q7m-170" value="BackUpViewModel" style="swimlane;html=1;fontStyle=1;align=center;verticalAlign=top;childLayout=stackLayout;horizontal=1;startSize=26;horizontalStack=0;resizeParent=1;resizeLast=0;collapsible=1;marginBottom=0;swimlaneFillColor=#ffffff;rounded=0;shadow=0;comic=0;labelBackgroundColor=none;strokeWidth=1;fillColor=none;fontFamily=Verdana;fontSize=12" vertex="1" parent="1">
          <mxGeometry x="-570" y="-1210" width="320" height="1498" as="geometry" />
        </mxCell>
        <mxCell id="8m_SzLdECYq5h24U5q7m-171" value="-&amp;nbsp;readonly _navigation: INavigationService" style="text;html=1;strokeColor=none;fillColor=none;align=left;verticalAlign=top;spacingLeft=4;spacingRight=4;whiteSpace=wrap;overflow=hidden;rotatable=0;points=[[0,0.5],[1,0.5]];portConstraint=eastwest;" vertex="1" parent="8m_SzLdECYq5h24U5q7m-170">
          <mxGeometry y="26" width="320" height="34" as="geometry" />
        </mxCell>
        <mxCell id="8m_SzLdECYq5h24U5q7m-199" value="-&amp;nbsp;readonly _notifier: IUIErrorNotifier" style="text;html=1;strokeColor=none;fillColor=none;align=left;verticalAlign=top;spacingLeft=4;spacingRight=4;whiteSpace=wrap;overflow=hidden;rotatable=0;points=[[0,0.5],[1,0.5]];portConstraint=eastwest;" vertex="1" parent="8m_SzLdECYq5h24U5q7m-170">
          <mxGeometry y="60" width="320" height="34" as="geometry" />
        </mxCell>
        <mxCell id="8m_SzLdECYq5h24U5q7m-200" value="-&amp;nbsp;readonly _fileDialogService : IFileDialogService" style="text;html=1;strokeColor=none;fillColor=none;align=left;verticalAlign=top;spacingLeft=4;spacingRight=4;whiteSpace=wrap;overflow=hidden;rotatable=0;points=[[0,0.5],[1,0.5]];portConstraint=eastwest;" vertex="1" parent="8m_SzLdECYq5h24U5q7m-170">
          <mxGeometry y="94" width="320" height="34" as="geometry" />
        </mxCell>
        <mxCell id="8m_SzLdECYq5h24U5q7m-203" value="- _job : IJobs" style="text;html=1;strokeColor=none;fillColor=none;align=left;verticalAlign=top;spacingLeft=4;spacingRight=4;whiteSpace=wrap;overflow=hidden;rotatable=0;points=[[0,0.5],[1,0.5]];portConstraint=eastwest;" vertex="1" parent="8m_SzLdECYq5h24U5q7m-170">
          <mxGeometry y="128" width="320" height="34" as="geometry" />
        </mxCell>
        <mxCell id="8m_SzLdECYq5h24U5q7m-172" value="+ ChangeSettingsCommand{ get; } : ICommand&amp;nbsp;" style="text;html=1;strokeColor=none;fillColor=none;align=left;verticalAlign=top;spacingLeft=4;spacingRight=4;whiteSpace=wrap;overflow=hidden;rotatable=0;points=[[0,0.5],[1,0.5]];portConstraint=eastwest;" vertex="1" parent="8m_SzLdECYq5h24U5q7m-170">
          <mxGeometry y="162" width="320" height="34" as="geometry" />
        </mxCell>
        <mxCell id="8m_SzLdECYq5h24U5q7m-173" value="+ ModifyCommand { get; } : ICommand&amp;nbsp;" style="text;html=1;strokeColor=none;fillColor=none;align=left;verticalAlign=top;spacingLeft=4;spacingRight=4;whiteSpace=wrap;overflow=hidden;rotatable=0;points=[[0,0.5],[1,0.5]];portConstraint=eastwest;" vertex="1" parent="8m_SzLdECYq5h24U5q7m-170">
          <mxGeometry y="196" width="320" height="34" as="geometry" />
        </mxCell>
        <mxCell id="8m_SzLdECYq5h24U5q7m-174" value="+ DeleteCommand { get; } : ICommand&amp;nbsp;" style="text;html=1;strokeColor=none;fillColor=none;align=left;verticalAlign=top;spacingLeft=4;spacingRight=4;whiteSpace=wrap;overflow=hidden;rotatable=0;points=[[0,0.5],[1,0.5]];portConstraint=eastwest;" vertex="1" parent="8m_SzLdECYq5h24U5q7m-170">
          <mxGeometry y="230" width="320" height="34" as="geometry" />
        </mxCell>
        <mxCell id="8m_SzLdECYq5h24U5q7m-175" value="+ ValidateCommand { get; } : ICommand&amp;nbsp;" style="text;html=1;strokeColor=none;fillColor=none;align=left;verticalAlign=top;spacingLeft=4;spacingRight=4;whiteSpace=wrap;overflow=hidden;rotatable=0;points=[[0,0.5],[1,0.5]];portConstraint=eastwest;" vertex="1" parent="8m_SzLdECYq5h24U5q7m-170">
          <mxGeometry y="264" width="320" height="34" as="geometry" />
        </mxCell>
        <mxCell id="8m_SzLdECYq5h24U5q7m-176" value="+ CancelCommand { get; } : ICommand&amp;nbsp;" style="text;html=1;strokeColor=none;fillColor=none;align=left;verticalAlign=top;spacingLeft=4;spacingRight=4;whiteSpace=wrap;overflow=hidden;rotatable=0;points=[[0,0.5],[1,0.5]];portConstraint=eastwest;" vertex="1" parent="8m_SzLdECYq5h24U5q7m-170">
          <mxGeometry y="298" width="320" height="34" as="geometry" />
        </mxCell>
        <mxCell id="8m_SzLdECYq5h24U5q7m-201" value="+ BrowseSourceCommand { get; } : ICommand&amp;nbsp;" style="text;html=1;strokeColor=none;fillColor=none;align=left;verticalAlign=top;spacingLeft=4;spacingRight=4;whiteSpace=wrap;overflow=hidden;rotatable=0;points=[[0,0.5],[1,0.5]];portConstraint=eastwest;" vertex="1" parent="8m_SzLdECYq5h24U5q7m-170">
          <mxGeometry y="332" width="320" height="34" as="geometry" />
        </mxCell>
        <mxCell id="8m_SzLdECYq5h24U5q7m-202" value="+ BrowseTargetCommand { get; } : ICommand&amp;nbsp;" style="text;html=1;strokeColor=none;fillColor=none;align=left;verticalAlign=top;spacingLeft=4;spacingRight=4;whiteSpace=wrap;overflow=hidden;rotatable=0;points=[[0,0.5],[1,0.5]];portConstraint=eastwest;" vertex="1" parent="8m_SzLdECYq5h24U5q7m-170">
          <mxGeometry y="366" width="320" height="34" as="geometry" />
        </mxCell>
        <mxCell id="8m_SzLdECYq5h24U5q7m-177" value="&amp;nbsp;- _isNameInvalid: bool" style="text;html=1;strokeColor=none;fillColor=none;align=left;verticalAlign=top;spacingLeft=4;spacingRight=4;whiteSpace=wrap;overflow=hidden;rotatable=0;points=[[0,0.5],[1,0.5]];portConstraint=eastwest;" vertex="1" parent="8m_SzLdECYq5h24U5q7m-170">
          <mxGeometry y="400" width="320" height="34" as="geometry" />
        </mxCell>
        <mxCell id="8m_SzLdECYq5h24U5q7m-179" value="+&amp;nbsp;IsNameInvalid : bool" style="text;html=1;strokeColor=none;fillColor=none;align=left;verticalAlign=top;spacingLeft=4;spacingRight=4;whiteSpace=wrap;overflow=hidden;rotatable=0;points=[[0,0.5],[1,0.5]];portConstraint=eastwest;" vertex="1" parent="8m_SzLdECYq5h24U5q7m-170">
          <mxGeometry y="434" width="320" height="34" as="geometry" />
        </mxCell>
        <mxCell id="8m_SzLdECYq5h24U5q7m-180" value="-&amp;nbsp;_isDirSourceInvalid : string" style="text;html=1;strokeColor=none;fillColor=none;align=left;verticalAlign=top;spacingLeft=4;spacingRight=4;whiteSpace=wrap;overflow=hidden;rotatable=0;points=[[0,0.5],[1,0.5]];portConstraint=eastwest;" vertex="1" parent="8m_SzLdECYq5h24U5q7m-170">
          <mxGeometry y="468" width="320" height="34" as="geometry" />
        </mxCell>
        <mxCell id="8m_SzLdECYq5h24U5q7m-181" value="+&amp;nbsp;IsDirSourceInvalid : bool" style="text;html=1;strokeColor=none;fillColor=none;align=left;verticalAlign=top;spacingLeft=4;spacingRight=4;whiteSpace=wrap;overflow=hidden;rotatable=0;points=[[0,0.5],[1,0.5]];portConstraint=eastwest;" vertex="1" parent="8m_SzLdECYq5h24U5q7m-170">
          <mxGeometry y="502" width="320" height="34" as="geometry" />
        </mxCell>
        <mxCell id="8m_SzLdECYq5h24U5q7m-182" value="-&amp;nbsp;_isDirTargetInvalid : bool" style="text;html=1;strokeColor=none;fillColor=none;align=left;verticalAlign=top;spacingLeft=4;spacingRight=4;whiteSpace=wrap;overflow=hidden;rotatable=0;points=[[0,0.5],[1,0.5]];portConstraint=eastwest;" vertex="1" parent="8m_SzLdECYq5h24U5q7m-170">
          <mxGeometry y="536" width="320" height="34" as="geometry" />
        </mxCell>
        <mxCell id="8m_SzLdECYq5h24U5q7m-183" value="+&amp;nbsp;IsDirTargetInvalid : bool" style="text;html=1;strokeColor=none;fillColor=none;align=left;verticalAlign=top;spacingLeft=4;spacingRight=4;whiteSpace=wrap;overflow=hidden;rotatable=0;points=[[0,0.5],[1,0.5]];portConstraint=eastwest;" vertex="1" parent="8m_SzLdECYq5h24U5q7m-170">
          <mxGeometry y="570" width="320" height="34" as="geometry" />
        </mxCell>
        <mxCell id="8m_SzLdECYq5h24U5q7m-184" value="-&amp;nbsp;_isEditMode : bool" style="text;html=1;strokeColor=none;fillColor=none;align=left;verticalAlign=top;spacingLeft=4;spacingRight=4;whiteSpace=wrap;overflow=hidden;rotatable=0;points=[[0,0.5],[1,0.5]];portConstraint=eastwest;" vertex="1" parent="8m_SzLdECYq5h24U5q7m-170">
          <mxGeometry y="604" width="320" height="34" as="geometry" />
        </mxCell>
        <mxCell id="8m_SzLdECYq5h24U5q7m-185" value="+&amp;nbsp;IsEditMode : bool" style="text;html=1;strokeColor=none;fillColor=none;align=left;verticalAlign=top;spacingLeft=4;spacingRight=4;whiteSpace=wrap;overflow=hidden;rotatable=0;points=[[0,0.5],[1,0.5]];portConstraint=eastwest;" vertex="1" parent="8m_SzLdECYq5h24U5q7m-170">
          <mxGeometry y="638" width="320" height="34" as="geometry" />
        </mxCell>
        <mxCell id="8m_SzLdECYq5h24U5q7m-186" value="+ ValidateLabel : string" style="text;html=1;strokeColor=none;fillColor=none;align=left;verticalAlign=top;spacingLeft=4;spacingRight=4;whiteSpace=wrap;overflow=hidden;rotatable=0;points=[[0,0.5],[1,0.5]];portConstraint=eastwest;" vertex="1" parent="8m_SzLdECYq5h24U5q7m-170">
          <mxGeometry y="672" width="320" height="34" as="geometry" />
        </mxCell>
        <mxCell id="8m_SzLdECYq5h24U5q7m-187" value="+ JobIdName : string" style="text;html=1;strokeColor=none;fillColor=none;align=left;verticalAlign=top;spacingLeft=4;spacingRight=4;whiteSpace=wrap;overflow=hidden;rotatable=0;points=[[0,0.5],[1,0.5]];portConstraint=eastwest;" vertex="1" parent="8m_SzLdECYq5h24U5q7m-170">
          <mxGeometry y="706" width="320" height="34" as="geometry" />
        </mxCell>
        <mxCell id="8m_SzLdECYq5h24U5q7m-204" value="-&amp;nbsp;_id : int" style="text;html=1;strokeColor=none;fillColor=none;align=left;verticalAlign=top;spacingLeft=4;spacingRight=4;whiteSpace=wrap;overflow=hidden;rotatable=0;points=[[0,0.5],[1,0.5]];portConstraint=eastwest;" vertex="1" parent="8m_SzLdECYq5h24U5q7m-170">
          <mxGeometry y="740" width="320" height="34" as="geometry" />
        </mxCell>
        <mxCell id="8m_SzLdECYq5h24U5q7m-205" value="+&amp;nbsp;Id : int" style="text;html=1;strokeColor=none;fillColor=none;align=left;verticalAlign=top;spacingLeft=4;spacingRight=4;whiteSpace=wrap;overflow=hidden;rotatable=0;points=[[0,0.5],[1,0.5]];portConstraint=eastwest;" vertex="1" parent="8m_SzLdECYq5h24U5q7m-170">
          <mxGeometry y="774" width="320" height="34" as="geometry" />
        </mxCell>
        <mxCell id="8m_SzLdECYq5h24U5q7m-207" value="- _name : string" style="text;html=1;strokeColor=none;fillColor=none;align=left;verticalAlign=top;spacingLeft=4;spacingRight=4;whiteSpace=wrap;overflow=hidden;rotatable=0;points=[[0,0.5],[1,0.5]];portConstraint=eastwest;" vertex="1" parent="8m_SzLdECYq5h24U5q7m-170">
          <mxGeometry y="808" width="320" height="34" as="geometry" />
        </mxCell>
        <mxCell id="8m_SzLdECYq5h24U5q7m-206" value="+ Name : string" style="text;html=1;strokeColor=none;fillColor=none;align=left;verticalAlign=top;spacingLeft=4;spacingRight=4;whiteSpace=wrap;overflow=hidden;rotatable=0;points=[[0,0.5],[1,0.5]];portConstraint=eastwest;" vertex="1" parent="8m_SzLdECYq5h24U5q7m-170">
          <mxGeometry y="842" width="320" height="34" as="geometry" />
        </mxCell>
        <mxCell id="8m_SzLdECYq5h24U5q7m-208" value="- _sourcePath : string" style="text;html=1;strokeColor=none;fillColor=none;align=left;verticalAlign=top;spacingLeft=4;spacingRight=4;whiteSpace=wrap;overflow=hidden;rotatable=0;points=[[0,0.5],[1,0.5]];portConstraint=eastwest;" vertex="1" parent="8m_SzLdECYq5h24U5q7m-170">
          <mxGeometry y="876" width="320" height="34" as="geometry" />
        </mxCell>
        <mxCell id="8m_SzLdECYq5h24U5q7m-209" value="+ dirSource : string" style="text;html=1;strokeColor=none;fillColor=none;align=left;verticalAlign=top;spacingLeft=4;spacingRight=4;whiteSpace=wrap;overflow=hidden;rotatable=0;points=[[0,0.5],[1,0.5]];portConstraint=eastwest;" vertex="1" parent="8m_SzLdECYq5h24U5q7m-170">
          <mxGeometry y="910" width="320" height="34" as="geometry" />
        </mxCell>
        <mxCell id="8m_SzLdECYq5h24U5q7m-210" value="- _targetPath : string" style="text;html=1;strokeColor=none;fillColor=none;align=left;verticalAlign=top;spacingLeft=4;spacingRight=4;whiteSpace=wrap;overflow=hidden;rotatable=0;points=[[0,0.5],[1,0.5]];portConstraint=eastwest;" vertex="1" parent="8m_SzLdECYq5h24U5q7m-170">
          <mxGeometry y="944" width="320" height="34" as="geometry" />
        </mxCell>
        <mxCell id="8m_SzLdECYq5h24U5q7m-211" value="+ dirTarget : string" style="text;html=1;strokeColor=none;fillColor=none;align=left;verticalAlign=top;spacingLeft=4;spacingRight=4;whiteSpace=wrap;overflow=hidden;rotatable=0;points=[[0,0.5],[1,0.5]];portConstraint=eastwest;" vertex="1" parent="8m_SzLdECYq5h24U5q7m-170">
          <mxGeometry y="978" width="320" height="34" as="geometry" />
        </mxCell>
        <mxCell id="8m_SzLdECYq5h24U5q7m-213" value="- _isEncryption : string" style="text;html=1;strokeColor=none;fillColor=none;align=left;verticalAlign=top;spacingLeft=4;spacingRight=4;whiteSpace=wrap;overflow=hidden;rotatable=0;points=[[0,0.5],[1,0.5]];portConstraint=eastwest;" vertex="1" parent="8m_SzLdECYq5h24U5q7m-170">
          <mxGeometry y="1012" width="320" height="34" as="geometry" />
        </mxCell>
        <mxCell id="8m_SzLdECYq5h24U5q7m-212" value="+ Encryption : string" style="text;html=1;strokeColor=none;fillColor=none;align=left;verticalAlign=top;spacingLeft=4;spacingRight=4;whiteSpace=wrap;overflow=hidden;rotatable=0;points=[[0,0.5],[1,0.5]];portConstraint=eastwest;" vertex="1" parent="8m_SzLdECYq5h24U5q7m-170">
          <mxGeometry y="1046" width="320" height="34" as="geometry" />
        </mxCell>
        <mxCell id="8m_SzLdECYq5h24U5q7m-214" value="- _isDifferential : string" style="text;html=1;strokeColor=none;fillColor=none;align=left;verticalAlign=top;spacingLeft=4;spacingRight=4;whiteSpace=wrap;overflow=hidden;rotatable=0;points=[[0,0.5],[1,0.5]];portConstraint=eastwest;" vertex="1" parent="8m_SzLdECYq5h24U5q7m-170">
          <mxGeometry y="1080" width="320" height="34" as="geometry" />
        </mxCell>
        <mxCell id="8m_SzLdECYq5h24U5q7m-215" value="+ Differential : string" style="text;html=1;strokeColor=none;fillColor=none;align=left;verticalAlign=top;spacingLeft=4;spacingRight=4;whiteSpace=wrap;overflow=hidden;rotatable=0;points=[[0,0.5],[1,0.5]];portConstraint=eastwest;" vertex="1" parent="8m_SzLdECYq5h24U5q7m-170">
          <mxGeometry y="1114" width="320" height="34" as="geometry" />
        </mxCell>
        <mxCell id="8m_SzLdECYq5h24U5q7m-189" value="" style="line;html=1;strokeWidth=1;fillColor=none;align=left;verticalAlign=middle;spacingTop=-1;spacingLeft=3;spacingRight=3;rotatable=0;labelPosition=right;points=[];portConstraint=eastwest;" vertex="1" parent="8m_SzLdECYq5h24U5q7m-170">
          <mxGeometry y="1148" width="320" height="10" as="geometry" />
        </mxCell>
        <mxCell id="8m_SzLdECYq5h24U5q7m-190" value="+&amp;nbsp;BackUpViewModel(INavigationService, IUIErrorNotifier)" style="text;html=1;strokeColor=none;fillColor=none;align=left;verticalAlign=top;spacingLeft=4;spacingRight=4;whiteSpace=wrap;overflow=hidden;rotatable=0;points=[[0,0.5],[1,0.5]];portConstraint=eastwest;" vertex="1" parent="8m_SzLdECYq5h24U5q7m-170">
          <mxGeometry y="1158" width="320" height="34" as="geometry" />
        </mxCell>
        <mxCell id="8m_SzLdECYq5h24U5q7m-191" value="+ InitializeDialogService(IFileDialogService) : void&amp;nbsp;" style="text;html=1;strokeColor=none;fillColor=none;align=left;verticalAlign=top;spacingLeft=4;spacingRight=4;whiteSpace=wrap;overflow=hidden;rotatable=0;points=[[0,0.5],[1,0.5]];portConstraint=eastwest;" vertex="1" parent="8m_SzLdECYq5h24U5q7m-170">
          <mxGeometry y="1192" width="320" height="34" as="geometry" />
        </mxCell>
        <mxCell id="8m_SzLdECYq5h24U5q7m-192" value="+ LoadFromExistingJob(BackUpJob) : void&amp;nbsp;" style="text;html=1;strokeColor=none;fillColor=none;align=left;verticalAlign=top;spacingLeft=4;spacingRight=4;whiteSpace=wrap;overflow=hidden;rotatable=0;points=[[0,0.5],[1,0.5]];portConstraint=eastwest;" vertex="1" parent="8m_SzLdECYq5h24U5q7m-170">
          <mxGeometry y="1226" width="320" height="34" as="geometry" />
        </mxCell>
        <mxCell id="8m_SzLdECYq5h24U5q7m-193" value="- Cancel() : void&amp;nbsp;" style="text;html=1;strokeColor=none;fillColor=none;align=left;verticalAlign=top;spacingLeft=4;spacingRight=4;whiteSpace=wrap;overflow=hidden;rotatable=0;points=[[0,0.5],[1,0.5]];portConstraint=eastwest;" vertex="1" parent="8m_SzLdECYq5h24U5q7m-170">
          <mxGeometry y="1260" width="320" height="34" as="geometry" />
        </mxCell>
        <mxCell id="8m_SzLdECYq5h24U5q7m-194" value="- IsValid() : bool" style="text;html=1;strokeColor=none;fillColor=none;align=left;verticalAlign=top;spacingLeft=4;spacingRight=4;whiteSpace=wrap;overflow=hidden;rotatable=0;points=[[0,0.5],[1,0.5]];portConstraint=eastwest;" vertex="1" parent="8m_SzLdECYq5h24U5q7m-170">
          <mxGeometry y="1294" width="320" height="34" as="geometry" />
        </mxCell>
        <mxCell id="8m_SzLdECYq5h24U5q7m-195" value="- Validate() : void&amp;nbsp;" style="text;html=1;strokeColor=none;fillColor=none;align=left;verticalAlign=top;spacingLeft=4;spacingRight=4;whiteSpace=wrap;overflow=hidden;rotatable=0;points=[[0,0.5],[1,0.5]];portConstraint=eastwest;" vertex="1" parent="8m_SzLdECYq5h24U5q7m-170">
          <mxGeometry y="1328" width="320" height="34" as="geometry" />
        </mxCell>
        <mxCell id="8m_SzLdECYq5h24U5q7m-196" value="- AlterJob() : void&amp;nbsp;" style="text;html=1;strokeColor=none;fillColor=none;align=left;verticalAlign=top;spacingLeft=4;spacingRight=4;whiteSpace=wrap;overflow=hidden;rotatable=0;points=[[0,0.5],[1,0.5]];portConstraint=eastwest;" vertex="1" parent="8m_SzLdECYq5h24U5q7m-170">
          <mxGeometry y="1362" width="320" height="34" as="geometry" />
        </mxCell>
        <mxCell id="8m_SzLdECYq5h24U5q7m-197" value="- CreateJob() : void&amp;nbsp;" style="text;html=1;strokeColor=none;fillColor=none;align=left;verticalAlign=top;spacingLeft=4;spacingRight=4;whiteSpace=wrap;overflow=hidden;rotatable=0;points=[[0,0.5],[1,0.5]];portConstraint=eastwest;" vertex="1" parent="8m_SzLdECYq5h24U5q7m-170">
          <mxGeometry y="1396" width="320" height="34" as="geometry" />
        </mxCell>
        <mxCell id="8m_SzLdECYq5h24U5q7m-216" value="- BrowseSource(object) : void&amp;nbsp;" style="text;html=1;strokeColor=none;fillColor=none;align=left;verticalAlign=top;spacingLeft=4;spacingRight=4;whiteSpace=wrap;overflow=hidden;rotatable=0;points=[[0,0.5],[1,0.5]];portConstraint=eastwest;" vertex="1" parent="8m_SzLdECYq5h24U5q7m-170">
          <mxGeometry y="1430" width="320" height="34" as="geometry" />
        </mxCell>
        <mxCell id="8m_SzLdECYq5h24U5q7m-217" value="+ BrowseTarget(object) : void&amp;nbsp;" style="text;html=1;strokeColor=none;fillColor=none;align=left;verticalAlign=top;spacingLeft=4;spacingRight=4;whiteSpace=wrap;overflow=hidden;rotatable=0;points=[[0,0.5],[1,0.5]];portConstraint=eastwest;" vertex="1" parent="8m_SzLdECYq5h24U5q7m-170">
          <mxGeometry y="1464" width="320" height="34" as="geometry" />
        </mxCell>
        <mxCell id="8m_SzLdECYq5h24U5q7m-219" value="" style="endArrow=block;dashed=1;endFill=0;endSize=12;html=1;rounded=0;" edge="1" parent="1" source="8m_SzLdECYq5h24U5q7m-20" target="8m_SzLdECYq5h24U5q7m-83">
          <mxGeometry width="160" relative="1" as="geometry">
            <mxPoint x="1040" y="-1428" as="sourcePoint" />
            <mxPoint x="1100" y="-1444" as="targetPoint" />
            <Array as="points" />
          </mxGeometry>
        </mxCell>
        <mxCell id="8m_SzLdECYq5h24U5q7m-220" value="&lt;b&gt;EasySaveV2 project&lt;/b&gt;" style="shape=umlFrame;whiteSpace=wrap;html=1;pointerEvents=0;strokeColor=#FFF0CF;fillColor=#F19C99;shadow=1;width=140;height=55;" vertex="1" parent="1">
          <mxGeometry x="-500" y="-1765" width="2500" height="455" as="geometry" />
        </mxCell>
        <mxCell id="8m_SzLdECYq5h24U5q7m-223" value="ViewModel" style="shape=umlFrame;whiteSpace=wrap;html=1;pointerEvents=0;strokeColor=#FFF0CF;fillColor=#FFF2C7;shadow=1;width=80;height=30;" vertex="1" parent="1">
          <mxGeometry x="680" y="-1560" width="1310" height="240" as="geometry" />
        </mxCell>
        <mxCell id="8m_SzLdECYq5h24U5q7m-227" value="Extends" style="endArrow=block;endSize=16;endFill=0;html=1;rounded=0;" edge="1" parent="1" source="8m_SzLdECYq5h24U5q7m-170" target="8m_SzLdECYq5h24U5q7m-108">
          <mxGeometry width="160" relative="1" as="geometry">
            <mxPoint x="390" y="-920" as="sourcePoint" />
            <mxPoint x="550" y="-920" as="targetPoint" />
            <Array as="points">
              <mxPoint x="-150" y="-1000" />
            </Array>
          </mxGeometry>
        </mxCell>
        <mxCell id="8m_SzLdECYq5h24U5q7m-228" value="Extends" style="endArrow=block;endSize=16;endFill=0;html=1;rounded=0;" edge="1" parent="1" source="8m_SzLdECYq5h24U5q7m-134" target="8m_SzLdECYq5h24U5q7m-108">
          <mxGeometry width="160" relative="1" as="geometry">
            <mxPoint x="-240" y="-783" as="sourcePoint" />
            <mxPoint x="35" y="-1049" as="targetPoint" />
            <Array as="points">
              <mxPoint x="90" y="-920" />
            </Array>
          </mxGeometry>
        </mxCell>
        <mxCell id="8m_SzLdECYq5h24U5q7m-229" value="Extends" style="endArrow=block;endSize=16;endFill=0;html=1;rounded=0;" edge="1" parent="1" source="8m_SzLdECYq5h24U5q7m-103" target="8m_SzLdECYq5h24U5q7m-108">
          <mxGeometry width="160" relative="1" as="geometry">
            <mxPoint x="100" y="-910" as="sourcePoint" />
            <mxPoint x="152" y="-1004" as="targetPoint" />
            <Array as="points" />
          </mxGeometry>
        </mxCell>
      </root>
    </mxGraphModel>
  </diagram>
</mxfile>
